<svg id="Layer_1" data-name="Layer 1" xmlns="http://www.w3.org/2000/svg" viewBox="0 0 1101.81 690.82"><defs><style>.cls-1,.cls-11,.cls-12,.cls-16,.cls-20,.cls-24,.cls-28,.cls-32,.cls-36,.cls-40{fill:#fff;}.cls-1{stroke:#231f20;}.cls-1,.cls-12,.cls-16,.cls-20,.cls-24,.cls-28,.cls-32,.cls-36,.cls-40{stroke-miterlimit:10;stroke-width:2px;}.cls-13,.cls-17,.cls-2,.cls-21,.cls-25,.cls-29,.cls-33,.cls-37,.cls-41{font-size:20.24px;font-family:Bitter-SemiBoldItalic, Bitter;font-weight:600;}.cls-10,.cls-2,.cls-7{fill:#231f20;}.cls-13,.cls-14,.cls-17,.cls-18,.cls-2,.cls-21,.cls-22,.cls-25,.cls-26,.cls-29,.cls-30,.cls-33,.cls-34,.cls-37,.cls-38,.cls-41,.cls-42,.cls-7{font-style:italic;}.cls-3{letter-spacing:-0.02em;}.cls-4{letter-spacing:0em;}.cls-5{letter-spacing:-0.02em;}.cls-6{letter-spacing:-0.02em;}.cls-14,.cls-18,.cls-22,.cls-26,.cls-30,.cls-34,.cls-38,.cls-42,.cls-7{font-size:20.31px;font-family:Bitter-BoldItalic, Bitter;font-weight:700;}.cls-8{letter-spacing:-0.02em;}.cls-9{letter-spacing:-0.02em;}.cls-12{stroke:#e52b61;}.cls-13,.cls-14{fill:#e52b61;}.cls-15{fill:#e52a61;}.cls-16{stroke:#ee7025;}.cls-17,.cls-18{fill:#ee7024;}.cls-19{fill:#ee7023;}.cls-20{stroke:#d9e147;}.cls-21,.cls-22,.cls-23{fill:#d9e147;}.cls-24{stroke:#6bc070;}.cls-25,.cls-26,.cls-27{fill:#6bc070;}.cls-28{stroke:#19b2bf;}.cls-29,.cls-30,.cls-31{fill:#19b2bf;}.cls-32{stroke:#4666b0;}.cls-33,.cls-34{fill:#4666b0;}.cls-35{fill:#4566b0;}.cls-36{stroke:#694c9f;}.cls-37,.cls-38,.cls-39{fill:#694c9f;}.cls-40{stroke:#e15ea2;}.cls-41,.cls-42{fill:#e15ea2;}.cls-43{fill:#e25da2;}</style></defs><line class="cls-1" y1="1.33" x2="243.28" y2="1.33"/><path class="cls-1" d="M44.37,90.75h19.9A18,18,0,0,1,77,96l9.54,9.54a10.93,10.93,0,0,0,15.46,0L111.56,96a18,18,0,0,1,12.76-5.29H287.65" transform="translate(-44.37 -81.31)"/><text class="cls-2" transform="translate(71.92 36.78)"><tspan class="cls-3">F</tspan><tspan class="cls-4" x="10.64" y="0">E</tspan><tspan class="cls-5" x="22.77" y="0">N</tspan><tspan class="cls-6" x="37.6" y="0">T</tspan><tspan x="49.03" y="0">ON</tspan></text><text class="cls-7" transform="translate(348.44 34.74)"><tspan class="cls-8">F</tspan><tspan x="10.75" y="0">E</tspan><tspan class="cls-9" x="22.83" y="0">N</tspan><tspan class="cls-8" x="37.62" y="0">T</tspan><tspan x="49.36" y="0">ON</tspan></text><polygon class="cls-10" points="527.54 2.7 277.27 2.7 278.28 0.33 528.55 0.33 527.54 2.7"/><path class="cls-10" d="M322.64,89.19l-1,2.36H342.8A15.84,15.84,0,0,1,354,96.19l6.37,6.37a10.81,10.81,0,0,0,15.3,0l6.46-6.46a15.69,15.69,0,0,1,11.08-4.58l178.7,0,1-2.36H392.45a17,17,0,0,0-12,5l-6.12,6.13a8.7,8.7,0,0,1-12.29,0l-6.1-6.1a17,17,0,0,0-12-5Z" transform="translate(-44.37 -81.31)"/><path class="cls-10" d="M1146.18,81.31l-3.74,10.49-178.7,0a15.66,15.66,0,0,0-11.08,4.59l-6.46,6.45a10.81,10.81,0,0,1-15.3,0l-6.37-6.36a15.81,15.81,0,0,0-11.2-4.65H892.17l3.74-10.49Z" transform="translate(-44.37 -81.31)"/><polygon class="cls-10" points="812.8 2.7 562.53 2.7 563.54 0.33 813.82 0.33 812.8 2.7"/><path class="cls-10" d="M607.91,89.19l-1,2.36h21.16a15.85,15.85,0,0,1,11.21,4.64l6.37,6.37a10.81,10.81,0,0,0,15.3,0l6.45-6.46a15.71,15.71,0,0,1,11.08-4.58l178.7,0,1-2.36H677.71a17,17,0,0,0-12,5l-6.12,6.13a8.71,8.71,0,0,1-12.3,0l-6.09-6.1a17.05,17.05,0,0,0-12-5Z" transform="translate(-44.37 -81.31)"/><path class="cls-10" d="M686.24,98.55a5.5,5.5,0,0,1-3.26,2.06,6.23,6.23,0,0,0-1.52.59,1.79,1.79,0,0,0-.91,1.3c-.24,2.25.22,4.52,0,6.77a19.61,19.61,0,0,0,0,2.3c0,.51,0,1,.08,1.52s0,1.34.06,2,.21,1.21.74,1.35a.93.93,0,0,0,.94-.41,5.52,5.52,0,0,0,0-2c-.15-1.59-.19-2-.24-3.57,0-.4-.08-.87.23-1.11a.91.91,0,0,1,.43-.17,7.29,7.29,0,0,1,2.6.54,1,1,0,0,0,.74,0,.83.83,0,0,0,.25-1.05,2,2,0,0,0-1.34-1.09,9.56,9.56,0,0,0-1.77-.25.77.77,0,0,1-.37-.12.73.73,0,0,1-.16-.6l.14-3.57a.41.41,0,0,1,0-.16.4.4,0,0,1,.2-.16,18.62,18.62,0,0,0,3.13-1.71,2.69,2.69,0,0,0,.8-.81,1.19,1.19,0,0,0,.1-1.11C687,98.7,686.59,98.4,686.24,98.55Z" transform="translate(-44.37 -81.31)"/><path class="cls-10" d="M694.75,102.57c-.54.07-1.15.19-1.66.26-.1,0-.17.13-.27.13s-.26-.33-.25-.56c0-.42-.26-.94-.67-.88a.75.75,0,0,0-.54.51,4.63,4.63,0,0,0-.22,2.16A106.1,106.1,0,0,1,691,116.8c0,.42,0,1,.4,1.1s.67-.17.92-.42a7.65,7.65,0,0,1,3.53-2.41,2.52,2.52,0,0,0,.66-.2,1,1,0,0,0-.31-1.8,2,2,0,0,0-1.34.5l-2.31,1.61a2.13,2.13,0,0,1-.2-1.2c0-1.14.07-2.28.11-3.42a.67.67,0,0,1,.08-.37.63.63,0,0,1,.31-.19l2.33-.87a1.22,1.22,0,0,0,.42-.23,1.19,1.19,0,0,0,.23-.87c0-.25-.07-.58-.32-.61a.47.47,0,0,0-.3.1l-1.66.94a.79.79,0,0,1-.41.13c-.26,0-.4-.31-.46-.57a3.6,3.6,0,0,1,.34-2.65,2,2,0,0,1,2.08-1.16,5,5,0,0,0,.55.17.52.52,0,0,0,.52-.17c.16-.23-.06-.87-.18-1.07A1.33,1.33,0,0,0,694.75,102.57Z" transform="translate(-44.37 -81.31)"/><path class="cls-10" d="M711.18,105.68q-1.32,3.07-2.43,6.22c-.16.45-.41.86-.55,1.32s-.07.7-.19,1.08-.23.94-.75.83c-.09,0-.51-.21-.59-.22s-.13-.12-.16-.2c-.72-2.11-.5-4.43-1-6.6a.88.88,0,0,0-.17-.41.37.37,0,0,0-.41-.12,25.11,25.11,0,0,0-2.24,5.6,3.42,3.42,0,0,1-.54,1.32.9.9,0,0,1-.32.26.87.87,0,0,1-1.12-.56,1.73,1.73,0,0,1,.19-1.36c.23-.41.53-.78.76-1.2a13.23,13.23,0,0,0,.58-1.52c.18-.46.41-.9.62-1.35a44.34,44.34,0,0,0,1.89-4.88l.67-2c.09-.26.24-.57.51-.58a.59.59,0,0,1,.26.07,1.43,1.43,0,0,1,.75,1,2.82,2.82,0,0,1,0,.82,18.63,18.63,0,0,0,.58,6.48c.9-1.81,1.7-3.66,2.49-5.52a1.55,1.55,0,0,1,.52-.75.68.68,0,0,1,1,.43A2.85,2.85,0,0,1,711.18,105.68Z" transform="translate(-44.37 -81.31)"/><path class="cls-10" d="M714.4,106.21a1.5,1.5,0,0,0,.38.59l.51.59a.46.46,0,0,0,.23.17.41.41,0,0,0,.3-.08l2-1.15c.08,0,.19-.09.25,0s0,.11,0,.16a30.85,30.85,0,0,0,0,4.08c0,.51,0,2,0,2.46.07,1.16-.08,1.79,0,2.95a4.16,4.16,0,0,0,.23,1.45,2.46,2.46,0,0,0,1.13,1.45.58.58,0,0,0,.44.07.46.46,0,0,0,.2-.14,1.28,1.28,0,0,0,.17-1.56c-.17-.27-.46-.47-.63-.76a2.52,2.52,0,0,1-.14-1.7,36.75,36.75,0,0,0,.37-4.69,21.68,21.68,0,0,1,.33-4.77.9.9,0,0,1,.13-.32c.3-.4,1.06-.1,1.38-.49a.7.7,0,0,0,0-.78,8.3,8.3,0,0,0-.54-.64c-.17-.23-.32-.52-.6-.58a.92.92,0,0,0-.61.17l-3.25,1.83c-.53.3-1.06.62-1.61.9C714.69,105.6,714.23,105.66,714.4,106.21Z" transform="translate(-44.37 -81.31)"/><path class="cls-10" d="M727.31,107.54c-.51.63-1,1.27-1.48,1.93a7.66,7.66,0,0,0-.76,1.21,6.76,6.76,0,0,0-.48,1.72,7.56,7.56,0,0,0,0,2.51,3.69,3.69,0,0,0,1.19,2.17,2.1,2.1,0,0,0,.7.39,2,2,0,0,0,.59.09,3.07,3.07,0,0,0,1.71-.64,9.61,9.61,0,0,0,1.33-1.3l1-1.16a8.09,8.09,0,0,0,1-1.36,8.86,8.86,0,0,0,.76-2,3.23,3.23,0,0,0,.15-1.76,2.49,2.49,0,0,0-.34-.67,4,4,0,0,0-1.69-1.55,2.19,2.19,0,0,0-2.2.22c-.12.1-.31.33-.49.31s-.13-.12-.25-.22C727.77,107.18,727.64,107.13,727.31,107.54Z" transform="translate(-44.37 -81.31)"/><path class="cls-11" d="M728.34,110.19c-.11.15-.29.31-.45.22s-.08-.1-.13-.14a.42.42,0,0,0-.49,0,1,1,0,0,0-.33.41,5.46,5.46,0,0,0-.57,3.76,1.23,1.23,0,0,0,.21.53,1,1,0,0,0,1.12.26,2.88,2.88,0,0,0,1-.7,13.71,13.71,0,0,0,1.66-1.75,4.73,4.73,0,0,0,.95-2.19,1.69,1.69,0,0,0-.24-1.25,1.58,1.58,0,0,0-1.53-.54C729,109,728.65,109.72,728.34,110.19Z" transform="translate(-44.37 -81.31)"/><path class="cls-10" d="M748.18,105.21a5.27,5.27,0,0,1-.77.87,8.93,8.93,0,0,0-1.19,1.72,83.22,83.22,0,0,0-4,7.87c-.19.43-.5.93-1,.88a.89.89,0,0,1-.47-.24,4.8,4.8,0,0,1-1.25-3.07l-.41-2.83-2.62,6a1.82,1.82,0,0,1-.42.66.61.61,0,0,1-.72.08.82.82,0,0,1-.24-.52,6.49,6.49,0,0,1,.76-3.42l1-2.32a23.32,23.32,0,0,1,2.45-4.7,1.32,1.32,0,0,1,.47-.44c.51-.24,1.11.24,1.24.78a4.3,4.3,0,0,1-.1,1.67,12.11,12.11,0,0,0,.34,4.1c0,.07,0,.15.11.17s.14-.07.18-.14l1.81-3.43a18.57,18.57,0,0,1,2.75-4.22,2.08,2.08,0,0,1,1.32-.75C748.25,103.86,748.6,104.51,748.18,105.21Z" transform="translate(-44.37 -81.31)"/><path class="cls-11" d="M897.15,86.27l-.6,1.82H915a14.9,14.9,0,0,1,10.54,4.37l6,6a10.17,10.17,0,0,0,14.38,0l6.07-6.07a14.74,14.74,0,0,1,10.42-4.31l177.77,0,.59-1.82H961.42a16.15,16.15,0,0,0-11.21,5.06l-5.76,5.75a8.18,8.18,0,0,1-11.56,0l-5.72-5.72a16.6,16.6,0,0,0-11.38-5.06Z" transform="translate(-44.37 -81.31)"/><text class="cls-7" transform="translate(918.96 34.41)"><tspan class="cls-8">F</tspan><tspan x="10.75" y="0">E</tspan><tspan class="cls-9" x="22.83" y="0">N</tspan><tspan class="cls-8" x="37.62" y="0">T</tspan><tspan x="49.36" y="0">ON</tspan></text><line class="cls-12" y1="87.16" x2="243.28" y2="87.16"/><path class="cls-12" d="M44.37,176.58h19.9A18,18,0,0,1,77,181.86l9.54,9.54a10.93,10.93,0,0,0,15.46,0l9.54-9.54a18.06,18.06,0,0,1,12.76-5.28H287.65" transform="translate(-44.37 -81.31)"/><text class="cls-13" transform="translate(71.92 122.61)"><tspan class="cls-3">F</tspan><tspan class="cls-4" x="10.64" y="0">E</tspan><tspan class="cls-5" x="22.77" y="0">N</tspan><tspan class="cls-6" x="37.6" y="0">T</tspan><tspan x="49.03" y="0">ON</tspan></text><text class="cls-14" transform="translate(348.44 120.57)"><tspan class="cls-8">F</tspan><tspan x="10.75" y="0">E</tspan><tspan class="cls-9" x="22.83" y="0">N</tspan><tspan class="cls-8" x="37.62" y="0">T</tspan><tspan x="49.36" y="0">ON</tspan></text><polygon class="cls-15" points="527.54 88.52 277.27 88.52 278.28 86.16 528.55 86.16 527.54 88.52"/><path class="cls-15" d="M322.64,175l-1,2.36H342.8A15.84,15.84,0,0,1,354,182l6.37,6.37a10.83,10.83,0,0,0,15.3,0l6.46-6.46a15.66,15.66,0,0,1,11.08-4.59l178.7,0,1-2.36H392.45a17,17,0,0,0-12,5l-6.12,6.12a8.68,8.68,0,0,1-12.29,0L355.9,180a17,17,0,0,0-12-5Z" transform="translate(-44.37 -81.31)"/><path class="cls-15" d="M1146.18,167.14l-3.74,10.49-178.7,0a15.69,15.69,0,0,0-11.08,4.58l-6.46,6.46a10.81,10.81,0,0,1-15.3,0l-6.37-6.37a15.84,15.84,0,0,0-11.2-4.64H892.17l3.74-10.49Z" transform="translate(-44.37 -81.31)"/><polygon class="cls-15" points="812.8 88.52 562.53 88.52 563.54 86.16 813.82 86.16 812.8 88.52"/><path class="cls-15" d="M607.91,175l-1,2.36h21.16A15.85,15.85,0,0,1,639.27,182l6.37,6.37a10.83,10.83,0,0,0,15.3,0l6.45-6.46a15.68,15.68,0,0,1,11.08-4.59l178.7,0,1-2.36H677.71a17,17,0,0,0-12,5l-6.12,6.12a8.69,8.69,0,0,1-12.3,0L641.17,180a17.05,17.05,0,0,0-12-5Z" transform="translate(-44.37 -81.31)"/><path class="cls-15" d="M686.24,184.38a5.5,5.5,0,0,1-3.26,2.06,6.23,6.23,0,0,0-1.52.59,1.8,1.8,0,0,0-.91,1.29c-.24,2.26.22,4.53,0,6.78a19.61,19.61,0,0,0,0,2.3,15.11,15.11,0,0,0,.08,1.51c.07.65,0,1.35.06,2s.21,1.2.74,1.35a.93.93,0,0,0,.94-.41,5.52,5.52,0,0,0,0-2c-.15-1.59-.19-2-.24-3.58,0-.39-.08-.86.23-1.11a1,1,0,0,1,.43-.16,7.29,7.29,0,0,1,2.6.54,1,1,0,0,0,.74,0,.84.84,0,0,0,.25-1,2,2,0,0,0-1.34-1.09,9.57,9.57,0,0,0-1.77-.26.61.61,0,0,1-.37-.12.71.71,0,0,1-.16-.59l.14-3.57a.47.47,0,0,1,0-.17.44.44,0,0,1,.2-.15,20.16,20.16,0,0,0,3.13-1.71,2.72,2.72,0,0,0,.8-.82,1.17,1.17,0,0,0,.1-1.1C687,184.53,686.59,184.23,686.24,184.38Z" transform="translate(-44.37 -81.31)"/><path class="cls-15" d="M694.75,188.4c-.54.07-1.15.19-1.66.26-.1,0-.17.13-.27.12s-.26-.32-.25-.55c0-.42-.26-.94-.67-.88a.75.75,0,0,0-.54.51,4.63,4.63,0,0,0-.22,2.16,106.13,106.13,0,0,1-.18,12.61c0,.42,0,1,.4,1.09s.67-.16.92-.41a7.6,7.6,0,0,1,3.53-2.42,2.5,2.5,0,0,0,.66-.19,1,1,0,0,0-.31-1.8,1.93,1.93,0,0,0-1.34.5l-2.31,1.6a2.08,2.08,0,0,1-.2-1.19c0-1.14.07-2.28.11-3.42a.65.65,0,0,1,.08-.37.63.63,0,0,1,.31-.19l2.33-.88a1,1,0,0,0,.42-.23,1.15,1.15,0,0,0,.23-.86c0-.25-.07-.59-.32-.61a.47.47,0,0,0-.3.1l-1.66.94a.79.79,0,0,1-.41.13c-.26,0-.4-.32-.46-.57a3.6,3.6,0,0,1,.34-2.65,2,2,0,0,1,2.08-1.16,5,5,0,0,0,.55.17.5.5,0,0,0,.52-.18c.16-.22-.06-.87-.18-1.07A1.32,1.32,0,0,0,694.75,188.4Z" transform="translate(-44.37 -81.31)"/><path class="cls-15" d="M711.18,191.51q-1.32,3.08-2.43,6.22c-.16.45-.41.86-.55,1.32s-.07.7-.19,1.07-.23.95-.75.84c-.09,0-.51-.21-.59-.23s-.13-.11-.16-.19c-.72-2.11-.5-4.43-1-6.6a.84.84,0,0,0-.17-.41.35.35,0,0,0-.41-.12,25.11,25.11,0,0,0-2.24,5.6,3.42,3.42,0,0,1-.54,1.32,1,1,0,0,1-.32.26.87.87,0,0,1-1.12-.56,1.73,1.73,0,0,1,.19-1.36c.23-.42.53-.78.76-1.2a13.23,13.23,0,0,0,.58-1.52c.18-.46.41-.91.62-1.35a45.13,45.13,0,0,0,1.89-4.88l.67-2c.09-.25.24-.56.51-.57a.59.59,0,0,1,.26.07,1.43,1.43,0,0,1,.75,1,2.89,2.89,0,0,1,0,.83,18.63,18.63,0,0,0,.58,6.48c.9-1.81,1.7-3.66,2.49-5.52a1.5,1.5,0,0,1,.52-.75.67.67,0,0,1,1,.43A2.85,2.85,0,0,1,711.18,191.51Z" transform="translate(-44.37 -81.31)"/><path class="cls-15" d="M714.4,192a1.5,1.5,0,0,0,.38.59l.51.59a.46.46,0,0,0,.23.17.46.46,0,0,0,.3-.08l2-1.15c.08,0,.19-.09.25,0s0,.1,0,.16a30.85,30.85,0,0,0,0,4.08c0,.51,0,2,0,2.46.07,1.15-.08,1.79,0,2.95a4.19,4.19,0,0,0,.23,1.45,2.44,2.44,0,0,0,1.13,1.44.59.59,0,0,0,.44.08.56.56,0,0,0,.2-.14,1.28,1.28,0,0,0,.17-1.56c-.17-.28-.46-.48-.63-.76a2.52,2.52,0,0,1-.14-1.7,36.75,36.75,0,0,0,.37-4.69,21.68,21.68,0,0,1,.33-4.77.9.9,0,0,1,.13-.32c.3-.4,1.06-.11,1.38-.49a.7.7,0,0,0,0-.78,8.3,8.3,0,0,0-.54-.64c-.17-.23-.32-.52-.6-.58a.87.87,0,0,0-.61.17l-3.25,1.83c-.53.3-1.06.62-1.61.9C714.69,191.42,714.23,191.49,714.4,192Z" transform="translate(-44.37 -81.31)"/><path class="cls-15" d="M727.31,193.37c-.51.63-1,1.27-1.48,1.93a7.66,7.66,0,0,0-.76,1.21,6.76,6.76,0,0,0-.48,1.72,7.56,7.56,0,0,0,0,2.51,3.69,3.69,0,0,0,1.19,2.17,2.1,2.1,0,0,0,.7.39,1.68,1.68,0,0,0,.59.08,3,3,0,0,0,1.71-.63,9.61,9.61,0,0,0,1.33-1.3l1-1.16a8.09,8.09,0,0,0,1-1.36,8.86,8.86,0,0,0,.76-2,3.23,3.23,0,0,0,.15-1.76,2.49,2.49,0,0,0-.34-.67,4,4,0,0,0-1.69-1.55,2.19,2.19,0,0,0-2.2.22c-.12.1-.31.33-.49.31s-.13-.13-.25-.22C727.77,193,727.64,193,727.31,193.37Z" transform="translate(-44.37 -81.31)"/><path class="cls-11" d="M728.34,196c-.11.15-.29.31-.45.21s-.08-.09-.13-.13a.42.42,0,0,0-.49,0,1.06,1.06,0,0,0-.33.4,5.5,5.5,0,0,0-.57,3.77,1.23,1.23,0,0,0,.21.53,1,1,0,0,0,1.12.26,2.88,2.88,0,0,0,1-.7,13.71,13.71,0,0,0,1.66-1.75,4.73,4.73,0,0,0,.95-2.19,1.72,1.72,0,0,0-.24-1.26,1.6,1.6,0,0,0-1.53-.53C729,194.82,728.65,195.54,728.34,196Z" transform="translate(-44.37 -81.31)"/><path class="cls-15" d="M748.18,191a5.27,5.27,0,0,1-.77.87,8.63,8.63,0,0,0-1.19,1.72,83.22,83.22,0,0,0-4,7.87c-.19.42-.5.93-1,.88a.89.89,0,0,1-.47-.24,4.8,4.8,0,0,1-1.25-3.07l-.41-2.84-2.62,6a1.82,1.82,0,0,1-.42.66.59.59,0,0,1-.72.07.77.77,0,0,1-.24-.51,6.49,6.49,0,0,1,.76-3.42l1-2.33A23.24,23.24,0,0,1,739.3,192a1.35,1.35,0,0,1,.47-.45c.51-.23,1.11.25,1.24.79a4.31,4.31,0,0,1-.1,1.67,12.13,12.13,0,0,0,.34,4.1c0,.07,0,.15.11.17s.14-.07.18-.14l1.81-3.43a18.36,18.36,0,0,1,2.75-4.22,2,2,0,0,1,1.32-.75C748.25,189.69,748.6,190.34,748.18,191Z" transform="translate(-44.37 -81.31)"/><path class="cls-11" d="M897.15,172.1l-.6,1.82H915a14.94,14.94,0,0,1,10.54,4.36l6,6a10.17,10.17,0,0,0,14.38,0l6.07-6.07a14.74,14.74,0,0,1,10.42-4.31l177.77,0,.59-1.82H961.42a16.15,16.15,0,0,0-11.21,5.06l-5.76,5.75a8.18,8.18,0,0,1-11.56,0l-5.72-5.72a16.6,16.6,0,0,0-11.38-5.06Z" transform="translate(-44.37 -81.31)"/><text class="cls-14" transform="translate(918.96 120.24)"><tspan class="cls-8">F</tspan><tspan x="10.75" y="0">E</tspan><tspan class="cls-9" x="22.83" y="0">N</tspan><tspan class="cls-8" x="37.62" y="0">T</tspan><tspan x="49.36" y="0">ON</tspan></text><line class="cls-16" y1="167.65" x2="243.28" y2="167.65"/><path class="cls-16" d="M44.37,257.07h19.9A18,18,0,0,1,77,262.35l9.54,9.54a10.93,10.93,0,0,0,15.46,0l9.54-9.54a18.06,18.06,0,0,1,12.76-5.28H287.65" transform="translate(-44.37 -81.31)"/><text class="cls-17" transform="translate(71.92 203.09)"><tspan class="cls-3">F</tspan><tspan class="cls-4" x="10.64" y="0">E</tspan><tspan class="cls-5" x="22.77" y="0">N</tspan><tspan class="cls-6" x="37.6" y="0">T</tspan><tspan x="49.03" y="0">ON</tspan></text><text class="cls-18" transform="translate(348.44 201.06)"><tspan class="cls-8">F</tspan><tspan x="10.75" y="0">E</tspan><tspan class="cls-9" x="22.83" y="0">N</tspan><tspan class="cls-8" x="37.62" y="0">T</tspan><tspan x="49.36" y="0">ON</tspan></text><polygon class="cls-19" points="527.54 169.01 277.27 169.01 278.28 166.65 528.55 166.65 527.54 169.01"/><path class="cls-19" d="M322.64,255.5l-1,2.37H342.8a15.84,15.84,0,0,1,11.2,4.64l6.37,6.37a10.83,10.83,0,0,0,15.3,0l6.46-6.46a15.66,15.66,0,0,1,11.08-4.59l178.7,0,1-2.37H392.45a17,17,0,0,0-12,5l-6.12,6.12a8.68,8.68,0,0,1-12.29,0l-6.1-6.09a17,17,0,0,0-12-5Z" transform="translate(-44.37 -81.31)"/><path class="cls-19" d="M1146.18,247.63l-3.74,10.49-178.7,0a15.61,15.61,0,0,0-11.08,4.58l-6.46,6.46a10.81,10.81,0,0,1-15.3,0l-6.37-6.37a15.84,15.84,0,0,0-11.2-4.64H892.17l3.74-10.49Z" transform="translate(-44.37 -81.31)"/><polygon class="cls-19" points="812.8 169.01 562.53 169.01 563.54 166.65 813.82 166.65 812.8 169.01"/><path class="cls-19" d="M607.91,255.5l-1,2.37h21.16a15.85,15.85,0,0,1,11.21,4.64l6.37,6.37a10.83,10.83,0,0,0,15.3,0l6.45-6.46a15.68,15.68,0,0,1,11.08-4.59l178.7,0,1-2.37H677.71a17,17,0,0,0-12,5l-6.12,6.12a8.69,8.69,0,0,1-12.3,0l-6.09-6.09a17,17,0,0,0-12-5Z" transform="translate(-44.37 -81.31)"/><path class="cls-19" d="M686.24,264.87a5.55,5.55,0,0,1-3.26,2.06,6.23,6.23,0,0,0-1.52.59,1.8,1.8,0,0,0-.91,1.29c-.24,2.26.22,4.53,0,6.78a19.61,19.61,0,0,0,0,2.3c0,.51,0,1,.08,1.51s0,1.35.06,2,.21,1.2.74,1.35a.93.93,0,0,0,.94-.42,5.46,5.46,0,0,0,0-2c-.15-1.59-.19-2-.24-3.58,0-.39-.08-.86.23-1.11a.9.9,0,0,1,.43-.16,7.08,7.08,0,0,1,2.6.54,1.1,1.1,0,0,0,.74,0,.84.84,0,0,0,.25-1.05,2,2,0,0,0-1.34-1.09,9.57,9.57,0,0,0-1.77-.26.61.61,0,0,1-.37-.12.71.71,0,0,1-.16-.59l.14-3.58a.45.45,0,0,1,0-.16.44.44,0,0,1,.2-.15,20.16,20.16,0,0,0,3.13-1.71,2.72,2.72,0,0,0,.8-.82,1.19,1.19,0,0,0,.1-1.11C687,265,686.59,264.72,686.24,264.87Z" transform="translate(-44.37 -81.31)"/><path class="cls-19" d="M694.75,268.89c-.54.07-1.15.18-1.66.26-.1,0-.17.13-.27.12s-.26-.32-.25-.55c0-.42-.26-.94-.67-.89a.78.78,0,0,0-.54.52,4.63,4.63,0,0,0-.22,2.16,106.13,106.13,0,0,1-.18,12.61c0,.42,0,1,.4,1.09s.67-.16.92-.42a7.65,7.65,0,0,1,3.53-2.41,2.5,2.5,0,0,0,.66-.19,1,1,0,0,0-.31-1.8,1.92,1.92,0,0,0-1.34.49l-2.31,1.61a2.08,2.08,0,0,1-.2-1.19c0-1.14.07-2.28.11-3.43a.64.64,0,0,1,.08-.36.63.63,0,0,1,.31-.19l2.33-.88a1,1,0,0,0,.42-.23,1.15,1.15,0,0,0,.23-.86c0-.25-.07-.59-.32-.61a.53.53,0,0,0-.3.09l-1.66.94a.64.64,0,0,1-.41.13c-.26,0-.4-.31-.46-.56a3.6,3.6,0,0,1,.34-2.65,2,2,0,0,1,2.08-1.16c.18,0,.36.13.55.16a.5.5,0,0,0,.52-.17c.16-.23-.06-.87-.18-1.07A1.32,1.32,0,0,0,694.75,268.89Z" transform="translate(-44.37 -81.31)"/><path class="cls-19" d="M711.18,272c-.88,2-1.69,4.12-2.43,6.22-.16.45-.41.86-.55,1.31s-.07.7-.19,1.08-.23.94-.75.83c-.09,0-.51-.2-.59-.22s-.13-.11-.16-.2c-.72-2.1-.5-4.42-1-6.59a.91.91,0,0,0-.17-.42.36.36,0,0,0-.41-.11,24.92,24.92,0,0,0-2.24,5.6,3.48,3.48,0,0,1-.54,1.32,1,1,0,0,1-.32.26.87.87,0,0,1-1.12-.56,1.73,1.73,0,0,1,.19-1.36c.23-.42.53-.78.76-1.2a14,14,0,0,0,.58-1.52c.18-.47.41-.91.62-1.36a44.18,44.18,0,0,0,1.89-4.87l.67-2c.09-.26.24-.56.51-.57a.59.59,0,0,1,.26.07,1.43,1.43,0,0,1,.75,1,2.82,2.82,0,0,1,0,.82,18.69,18.69,0,0,0,.58,6.49c.9-1.81,1.7-3.66,2.49-5.52a1.58,1.58,0,0,1,.52-.76.68.68,0,0,1,1,.44A2.86,2.86,0,0,1,711.18,272Z" transform="translate(-44.37 -81.31)"/><path class="cls-19" d="M714.4,272.53a1.46,1.46,0,0,0,.38.58l.51.6a.53.53,0,0,0,.23.17.41.41,0,0,0,.3-.09l2-1.15c.08,0,.19-.08.25,0s0,.1,0,.16a30.85,30.85,0,0,0,0,4.08c0,.5,0,1.95,0,2.46.07,1.15-.08,1.79,0,2.95a4.23,4.23,0,0,0,.23,1.45,2.44,2.44,0,0,0,1.13,1.44.59.59,0,0,0,.44.08.56.56,0,0,0,.2-.14,1.28,1.28,0,0,0,.17-1.56c-.17-.28-.46-.48-.63-.76a2.52,2.52,0,0,1-.14-1.7,36.75,36.75,0,0,0,.37-4.69,21.81,21.81,0,0,1,.33-4.78.85.85,0,0,1,.13-.31c.3-.4,1.06-.11,1.38-.49a.71.71,0,0,0,0-.79c-.15-.23-.37-.41-.54-.63s-.32-.53-.6-.58a.87.87,0,0,0-.61.17l-3.25,1.83c-.53.3-1.06.62-1.61.9C714.69,271.91,714.23,272,714.4,272.53Z" transform="translate(-44.37 -81.31)"/><path class="cls-19" d="M727.31,273.86c-.51.63-1,1.27-1.48,1.93a7.23,7.23,0,0,0-.76,1.21,6.8,6.8,0,0,0-.48,1.71,7.62,7.62,0,0,0,0,2.52,3.67,3.67,0,0,0,1.19,2.16,1.84,1.84,0,0,0,1.29.48,2.93,2.93,0,0,0,1.71-.64,9,9,0,0,0,1.33-1.29l1-1.17a7.64,7.64,0,0,0,1-1.35,8.86,8.86,0,0,0,.76-2,3.23,3.23,0,0,0,.15-1.76,2.41,2.41,0,0,0-.34-.68,4,4,0,0,0-1.69-1.54,2.19,2.19,0,0,0-2.2.22c-.12.1-.31.33-.49.31s-.13-.13-.25-.22C727.77,273.5,727.64,273.45,727.31,273.86Z" transform="translate(-44.37 -81.31)"/><path class="cls-11" d="M728.34,276.51c-.11.15-.29.31-.45.21s-.08-.09-.13-.13a.4.4,0,0,0-.49,0,1,1,0,0,0-.33.4,5.5,5.5,0,0,0-.57,3.77,1.34,1.34,0,0,0,.21.53,1,1,0,0,0,1.12.26,3,3,0,0,0,1-.7,13.15,13.15,0,0,0,1.66-1.76,4.69,4.69,0,0,0,.95-2.18,1.72,1.72,0,0,0-.24-1.26,1.57,1.57,0,0,0-1.53-.53C729,275.31,728.65,276,728.34,276.51Z" transform="translate(-44.37 -81.31)"/><path class="cls-19" d="M748.18,271.53a5.71,5.71,0,0,1-.77.87,8.86,8.86,0,0,0-1.19,1.71,83.39,83.39,0,0,0-4,7.88c-.19.42-.5.93-1,.88a1,1,0,0,1-.47-.24,4.8,4.8,0,0,1-1.25-3.07l-.41-2.84-2.62,6a1.82,1.82,0,0,1-.42.66.59.59,0,0,1-.72.07.79.79,0,0,1-.24-.51,6.53,6.53,0,0,1,.76-3.43l1-2.32a23.24,23.24,0,0,1,2.45-4.69,1.27,1.27,0,0,1,.47-.45c.51-.23,1.11.25,1.24.79a4.25,4.25,0,0,1-.1,1.66,12.09,12.09,0,0,0,.34,4.1c0,.07,0,.16.11.18s.14-.07.18-.15l1.81-3.43A18.3,18.3,0,0,1,746.1,271a2,2,0,0,1,1.32-.76C748.25,270.18,748.6,270.82,748.18,271.53Z" transform="translate(-44.37 -81.31)"/><path class="cls-11" d="M897.15,252.59l-.6,1.82H915a14.94,14.94,0,0,1,10.54,4.36l6,6a10.17,10.17,0,0,0,14.38,0l6.07-6.07a14.74,14.74,0,0,1,10.42-4.31l177.77,0,.59-1.82H961.42a16.14,16.14,0,0,0-11.21,5l-5.76,5.76a8.18,8.18,0,0,1-11.56,0l-5.72-5.73a16.64,16.64,0,0,0-11.38-5.05Z" transform="translate(-44.37 -81.31)"/><text class="cls-18" transform="translate(918.96 200.73)"><tspan class="cls-8">F</tspan><tspan x="10.75" y="0">E</tspan><tspan class="cls-9" x="22.83" y="0">N</tspan><tspan class="cls-8" x="37.62" y="0">T</tspan><tspan x="49.36" y="0">ON</tspan></text><line class="cls-20" y1="248.14" x2="243.28" y2="248.14"/><path class="cls-20" d="M44.37,337.56h19.9A18,18,0,0,1,77,342.84l9.54,9.54a10.93,10.93,0,0,0,15.46,0l9.54-9.54a18.06,18.06,0,0,1,12.76-5.28H287.65" transform="translate(-44.37 -81.31)"/><text class="cls-21" transform="translate(71.92 283.58)"><tspan class="cls-3">F</tspan><tspan class="cls-4" x="10.64" y="0">E</tspan><tspan class="cls-5" x="22.77" y="0">N</tspan><tspan class="cls-6" x="37.6" y="0">T</tspan><tspan x="49.03" y="0">ON</tspan></text><text class="cls-22" transform="translate(348.44 281.55)"><tspan class="cls-8">F</tspan><tspan x="10.75" y="0">E</tspan><tspan class="cls-9" x="22.83" y="0">N</tspan><tspan class="cls-8" x="37.62" y="0">T</tspan><tspan x="49.36" y="0">ON</tspan></text><polygon class="cls-23" points="527.54 249.5 277.27 249.5 278.28 247.14 528.55 247.14 527.54 249.5"/><path class="cls-23" d="M322.64,336l-1,2.37H342.8A15.84,15.84,0,0,1,354,343l6.37,6.37a10.83,10.83,0,0,0,15.3,0l6.46-6.46a15.66,15.66,0,0,1,11.08-4.59l178.7,0,1-2.37H392.45a17,17,0,0,0-12,5l-6.12,6.12a8.68,8.68,0,0,1-12.29,0L355.9,341a17,17,0,0,0-12-5Z" transform="translate(-44.37 -81.31)"/><path class="cls-23" d="M1146.18,328.11l-3.74,10.5-178.7,0a15.66,15.66,0,0,0-11.08,4.59l-6.46,6.46a10.83,10.83,0,0,1-15.3,0l-6.37-6.37a15.84,15.84,0,0,0-11.2-4.64H892.17l3.74-10.5Z" transform="translate(-44.37 -81.31)"/><polygon class="cls-23" points="812.8 249.5 562.53 249.5 563.54 247.14 813.82 247.14 812.8 249.5"/><path class="cls-23" d="M607.91,336l-1,2.37h21.16A15.85,15.85,0,0,1,639.27,343l6.37,6.37a10.83,10.83,0,0,0,15.3,0l6.45-6.46a15.68,15.68,0,0,1,11.08-4.59l178.7,0,1-2.37H677.71a17,17,0,0,0-12,5l-6.12,6.12a8.69,8.69,0,0,1-12.3,0L641.17,341a17,17,0,0,0-12-5Z" transform="translate(-44.37 -81.31)"/><path class="cls-23" d="M686.24,345.36a5.49,5.49,0,0,1-3.26,2.05,6.25,6.25,0,0,0-1.52.6,1.8,1.8,0,0,0-.91,1.29c-.24,2.26.22,4.52,0,6.78a19.64,19.64,0,0,0,0,2.3c0,.51,0,1,.08,1.51s0,1.35.06,2,.21,1.2.74,1.34a.91.91,0,0,0,.94-.41,5.47,5.47,0,0,0,0-2c-.15-1.59-.19-2-.24-3.58,0-.4-.08-.86.23-1.11a.9.9,0,0,1,.43-.16,7.06,7.06,0,0,1,2.6.53,1,1,0,0,0,.74,0,.85.85,0,0,0,.25-1.06,2.05,2.05,0,0,0-1.34-1.09,10.48,10.48,0,0,0-1.77-.25.61.61,0,0,1-.37-.12.72.72,0,0,1-.16-.59l.14-3.58a.45.45,0,0,1,0-.16.38.38,0,0,1,.2-.15,20.16,20.16,0,0,0,3.13-1.71,2.84,2.84,0,0,0,.8-.82,1.19,1.19,0,0,0,.1-1.11C687,345.5,686.59,345.21,686.24,345.36Z" transform="translate(-44.37 -81.31)"/><path class="cls-23" d="M694.75,349.38c-.54.07-1.15.18-1.66.26-.1,0-.17.13-.27.12s-.26-.33-.25-.55c0-.42-.26-.94-.67-.89a.79.79,0,0,0-.54.51,4.67,4.67,0,0,0-.22,2.17,106.13,106.13,0,0,1-.18,12.61c0,.42,0,1,.4,1.09s.67-.16.92-.42a7.65,7.65,0,0,1,3.53-2.41,2.5,2.5,0,0,0,.66-.19,1,1,0,0,0,.5-1,1,1,0,0,0-.81-.79,2,2,0,0,0-1.34.5L692.51,362a2.09,2.09,0,0,1-.2-1.19c0-1.14.07-2.29.11-3.43a.64.64,0,0,1,.08-.36.63.63,0,0,1,.31-.19l2.33-.88a1.22,1.22,0,0,0,.42-.23,1.16,1.16,0,0,0,.23-.86c0-.26-.07-.59-.32-.61a.46.46,0,0,0-.3.09l-1.66.94a.71.71,0,0,1-.41.13c-.26,0-.4-.31-.46-.56a3.62,3.62,0,0,1,.34-2.66,2,2,0,0,1,2.08-1.16,5,5,0,0,0,.55.17.52.52,0,0,0,.52-.17c.16-.23-.06-.87-.18-1.07A1.32,1.32,0,0,0,694.75,349.38Z" transform="translate(-44.37 -81.31)"/><path class="cls-23" d="M711.18,352.49c-.88,2-1.69,4.12-2.43,6.22-.16.44-.41.86-.55,1.31s-.07.7-.19,1.08-.23.94-.75.83c-.09,0-.51-.2-.59-.22s-.13-.11-.16-.2c-.72-2.1-.5-4.42-1-6.59a.91.91,0,0,0-.17-.42.36.36,0,0,0-.41-.11,25,25,0,0,0-2.24,5.59,3.35,3.35,0,0,1-.54,1.32.92.92,0,0,1-.32.27.89.89,0,0,1-1.12-.56,1.72,1.72,0,0,1,.19-1.36c.23-.42.53-.79.76-1.2a13.38,13.38,0,0,0,.58-1.53c.18-.46.41-.9.62-1.35a44.18,44.18,0,0,0,1.89-4.87l.67-2c.09-.26.24-.56.51-.57a.48.48,0,0,1,.26.07,1.43,1.43,0,0,1,.75,1,2.82,2.82,0,0,1,0,.82,18.69,18.69,0,0,0,.58,6.49c.9-1.81,1.7-3.67,2.49-5.52a1.58,1.58,0,0,1,.52-.76.68.68,0,0,1,1,.43A2.89,2.89,0,0,1,711.18,352.49Z" transform="translate(-44.37 -81.31)"/><path class="cls-23" d="M714.4,353a1.46,1.46,0,0,0,.38.58l.51.6a.53.53,0,0,0,.23.17.41.41,0,0,0,.3-.09l2-1.15c.08,0,.19-.08.25,0s0,.1,0,.15a31,31,0,0,0,0,4.09c0,.5,0,1.95,0,2.45.07,1.16-.08,1.8,0,2.95a4.25,4.25,0,0,0,.23,1.46,2.47,2.47,0,0,0,1.13,1.44.64.64,0,0,0,.44.08.56.56,0,0,0,.2-.14,1.28,1.28,0,0,0,.17-1.56c-.17-.28-.46-.48-.63-.76a2.53,2.53,0,0,1-.14-1.7,36.9,36.9,0,0,0,.37-4.69,21.81,21.81,0,0,1,.33-4.78.85.85,0,0,1,.13-.31c.3-.4,1.06-.11,1.38-.5a.7.7,0,0,0,0-.78c-.15-.23-.37-.41-.54-.64s-.32-.52-.6-.58a1,1,0,0,0-.61.17l-3.25,1.83c-.53.31-1.06.63-1.61.91C714.69,352.4,714.23,352.46,714.4,353Z" transform="translate(-44.37 -81.31)"/><path class="cls-23" d="M727.31,354.35c-.51.63-1,1.27-1.48,1.93a7.23,7.23,0,0,0-.76,1.21,6.8,6.8,0,0,0-.48,1.71,7.62,7.62,0,0,0,0,2.52,3.67,3.67,0,0,0,1.19,2.16,2.12,2.12,0,0,0,.7.4,2,2,0,0,0,.59.08,2.93,2.93,0,0,0,1.71-.64,9.07,9.07,0,0,0,1.33-1.3l1-1.16a8.44,8.44,0,0,0,1-1.35,8.86,8.86,0,0,0,.76-2,3.26,3.26,0,0,0,.15-1.77,2.49,2.49,0,0,0-.34-.67,3.92,3.92,0,0,0-1.69-1.54,2.19,2.19,0,0,0-2.2.22c-.12.1-.31.32-.49.3s-.13-.12-.25-.21C727.77,354,727.64,353.94,727.31,354.35Z" transform="translate(-44.37 -81.31)"/><path class="cls-11" d="M728.34,357c-.11.16-.29.32-.45.22s-.08-.09-.13-.14a.42.42,0,0,0-.49,0,1,1,0,0,0-.33.4,5.5,5.5,0,0,0-.57,3.77,1.24,1.24,0,0,0,.21.52,1,1,0,0,0,1.12.27,3,3,0,0,0,1-.7,13.15,13.15,0,0,0,1.66-1.76,4.68,4.68,0,0,0,.95-2.19,1.7,1.7,0,0,0-.24-1.25,1.6,1.6,0,0,0-1.53-.54C729,355.8,728.65,356.52,728.34,357Z" transform="translate(-44.37 -81.31)"/><path class="cls-23" d="M748.18,352a5.21,5.21,0,0,1-.77.86,9.25,9.25,0,0,0-1.19,1.72,83.22,83.22,0,0,0-4,7.87c-.19.43-.5.94-1,.88a1,1,0,0,1-.47-.23,4.83,4.83,0,0,1-1.25-3.08l-.41-2.83-2.62,6a1.82,1.82,0,0,1-.42.66.61.61,0,0,1-.72.07.79.79,0,0,1-.24-.52,6.49,6.49,0,0,1,.76-3.42l1-2.32A23,23,0,0,1,739.3,353a1.27,1.27,0,0,1,.47-.45c.51-.23,1.11.24,1.24.79a4.25,4.25,0,0,1-.1,1.66,12.09,12.09,0,0,0,.34,4.1c0,.07,0,.16.11.17s.14-.06.18-.14l1.81-3.43a18.57,18.57,0,0,1,2.75-4.22,2.08,2.08,0,0,1,1.32-.75C748.25,350.66,748.6,351.31,748.18,352Z" transform="translate(-44.37 -81.31)"/><path class="cls-11" d="M897.15,333.08l-.6,1.82H915a14.94,14.94,0,0,1,10.54,4.36l6,6a10.17,10.17,0,0,0,14.38,0l6.07-6.07a14.75,14.75,0,0,1,10.42-4.32l177.77,0,.59-1.82H961.42a16.14,16.14,0,0,0-11.21,5.05l-5.76,5.76a8.18,8.18,0,0,1-11.56,0l-5.72-5.73a16.59,16.59,0,0,0-11.38-5.05Z" transform="translate(-44.37 -81.31)"/><text class="cls-22" transform="translate(918.96 281.21)"><tspan class="cls-8">F</tspan><tspan x="10.75" y="0">E</tspan><tspan class="cls-9" x="22.83" y="0">N</tspan><tspan class="cls-8" x="37.62" y="0">T</tspan><tspan x="49.36" y="0">ON</tspan></text><line class="cls-24" y1="328.63" x2="243.28" y2="328.63"/><path class="cls-24" d="M44.37,418h19.9A18,18,0,0,1,77,423.33l9.54,9.54a10.93,10.93,0,0,0,15.46,0l9.54-9.54A18.07,18.07,0,0,1,124.32,418H287.65" transform="translate(-44.37 -81.31)"/><text class="cls-25" transform="translate(71.92 364.07)"><tspan class="cls-3">F</tspan><tspan class="cls-4" x="10.64" y="0">E</tspan><tspan class="cls-5" x="22.77" y="0">N</tspan><tspan class="cls-6" x="37.6" y="0">T</tspan><tspan x="49.03" y="0">ON</tspan></text><text class="cls-26" transform="translate(348.44 362.03)"><tspan class="cls-8">F</tspan><tspan x="10.75" y="0">E</tspan><tspan class="cls-9" x="22.83" y="0">N</tspan><tspan class="cls-8" x="37.62" y="0">T</tspan><tspan x="49.36" y="0">ON</tspan></text><polygon class="cls-27" points="527.54 329.99 277.27 329.99 278.28 327.63 528.55 327.63 527.54 329.99"/><path class="cls-27" d="M322.64,416.48l-1,2.37H342.8a15.8,15.8,0,0,1,11.2,4.64l6.37,6.36a10.81,10.81,0,0,0,15.3,0l6.46-6.45a15.66,15.66,0,0,1,11.08-4.59l178.7,0,1-2.37H392.45a17,17,0,0,0-12,5l-6.12,6.12a8.7,8.7,0,0,1-12.29,0l-6.1-6.09a17,17,0,0,0-12-5Z" transform="translate(-44.37 -81.31)"/><path class="cls-27" d="M1146.18,408.6l-3.74,10.5-178.7,0a15.66,15.66,0,0,0-11.08,4.59l-6.46,6.46a10.83,10.83,0,0,1-15.3,0l-6.37-6.37a15.84,15.84,0,0,0-11.2-4.64H892.17l3.74-10.5Z" transform="translate(-44.37 -81.31)"/><polygon class="cls-27" points="812.8 329.99 562.53 329.99 563.54 327.63 813.82 327.63 812.8 329.99"/><path class="cls-27" d="M607.91,416.48l-1,2.37h21.16a15.81,15.81,0,0,1,11.21,4.64l6.37,6.36a10.81,10.81,0,0,0,15.3,0l6.45-6.45a15.68,15.68,0,0,1,11.08-4.59l178.7,0,1-2.37H677.71a17,17,0,0,0-12,5l-6.12,6.12a8.71,8.71,0,0,1-12.3,0l-6.09-6.09a17,17,0,0,0-12-5Z" transform="translate(-44.37 -81.31)"/><path class="cls-27" d="M686.24,425.85a5.49,5.49,0,0,1-3.26,2,6.25,6.25,0,0,0-1.52.6,1.78,1.78,0,0,0-.91,1.29c-.24,2.25.22,4.52,0,6.78a19.47,19.47,0,0,0,0,2.29c0,.51,0,1,.08,1.52s0,1.35.06,2,.21,1.21.74,1.35a.91.91,0,0,0,.94-.41,5.52,5.52,0,0,0,0-2c-.15-1.58-.19-2-.24-3.57,0-.4-.08-.87.23-1.11a.81.81,0,0,1,.43-.16,7.06,7.06,0,0,1,2.6.53,1,1,0,0,0,.74,0,.85.85,0,0,0,.25-1.06,2,2,0,0,0-1.34-1.09,9.56,9.56,0,0,0-1.77-.25.77.77,0,0,1-.37-.12.72.72,0,0,1-.16-.59l.14-3.58a.45.45,0,0,1,0-.16.34.34,0,0,1,.2-.15,20.16,20.16,0,0,0,3.13-1.71,2.84,2.84,0,0,0,.8-.82,1.19,1.19,0,0,0,.1-1.11C687,426,686.59,425.69,686.24,425.85Z" transform="translate(-44.37 -81.31)"/><path class="cls-27" d="M694.75,429.87c-.54.07-1.15.18-1.66.25-.1,0-.17.13-.27.13s-.26-.33-.25-.55c0-.43-.26-.94-.67-.89a.77.77,0,0,0-.54.51,4.63,4.63,0,0,0-.22,2.16,106.07,106.07,0,0,1-.18,12.61c0,.42,0,1,.4,1.1s.67-.17.92-.42a7.65,7.65,0,0,1,3.53-2.41,2.5,2.5,0,0,0,.66-.19,1,1,0,0,0-.31-1.81,2,2,0,0,0-1.34.5l-2.31,1.61a2.11,2.11,0,0,1-.2-1.19c0-1.15.07-2.29.11-3.43a.62.62,0,0,1,.08-.36.72.72,0,0,1,.31-.2l2.33-.87a1.22,1.22,0,0,0,.42-.23,1.18,1.18,0,0,0,.23-.86c0-.26-.07-.59-.32-.62a.54.54,0,0,0-.3.1l-1.66.94a.71.71,0,0,1-.41.13c-.26,0-.4-.31-.46-.56a3.62,3.62,0,0,1,.34-2.66,2,2,0,0,1,2.08-1.16,5,5,0,0,0,.55.17.52.52,0,0,0,.52-.17c.16-.23-.06-.87-.18-1.07A1.32,1.32,0,0,0,694.75,429.87Z" transform="translate(-44.37 -81.31)"/><path class="cls-27" d="M711.18,433q-1.32,3.07-2.43,6.22c-.16.45-.41.87-.55,1.32s-.07.7-.19,1.08-.23.94-.75.83c-.09,0-.51-.2-.59-.22s-.13-.11-.16-.2c-.72-2.11-.5-4.42-1-6.59a.91.91,0,0,0-.17-.42.36.36,0,0,0-.41-.11,25,25,0,0,0-2.24,5.59,3.35,3.35,0,0,1-.54,1.32.92.92,0,0,1-.32.27.89.89,0,0,1-1.12-.56,1.72,1.72,0,0,1,.19-1.36c.23-.42.53-.79.76-1.2a13.38,13.38,0,0,0,.58-1.53c.18-.46.41-.9.62-1.35a44.34,44.34,0,0,0,1.89-4.88l.67-2c.09-.26.24-.57.51-.57a.48.48,0,0,1,.26.07,1.43,1.43,0,0,1,.75,1,2.82,2.82,0,0,1,0,.82,18.63,18.63,0,0,0,.58,6.48c.9-1.8,1.7-3.66,2.49-5.51a1.58,1.58,0,0,1,.52-.76.68.68,0,0,1,1,.43A2.85,2.85,0,0,1,711.18,433Z" transform="translate(-44.37 -81.31)"/><path class="cls-27" d="M714.4,433.51a1.54,1.54,0,0,0,.38.58l.51.6a.53.53,0,0,0,.23.17.46.46,0,0,0,.3-.09l2-1.15c.08,0,.19-.09.25,0a.23.23,0,0,1,0,.16,30.86,30.86,0,0,0,0,4.08c0,.51,0,2,0,2.46.07,1.16-.08,1.8,0,2.95a4.16,4.16,0,0,0,.23,1.45,2.46,2.46,0,0,0,1.13,1.45.58.58,0,0,0,.44.07.53.53,0,0,0,.2-.13,1.28,1.28,0,0,0,.17-1.56c-.17-.28-.46-.48-.63-.76a2.53,2.53,0,0,1-.14-1.7,37.05,37.05,0,0,0,.37-4.7,21.72,21.72,0,0,1,.33-4.77.85.85,0,0,1,.13-.31c.3-.41,1.06-.11,1.38-.5a.7.7,0,0,0,0-.78,8.3,8.3,0,0,0-.54-.64c-.17-.22-.32-.52-.6-.58a1,1,0,0,0-.61.17l-3.25,1.83c-.53.3-1.06.63-1.61.91C714.69,432.89,714.23,433,714.4,433.51Z" transform="translate(-44.37 -81.31)"/><path class="cls-27" d="M727.31,434.84c-.51.63-1,1.27-1.48,1.93a6.85,6.85,0,0,0-.76,1.21,6.69,6.69,0,0,0-.48,1.71,7.56,7.56,0,0,0,0,2.51,3.66,3.66,0,0,0,1.19,2.17,2.12,2.12,0,0,0,.7.4,2,2,0,0,0,.59.08,3,3,0,0,0,1.71-.64,9.07,9.07,0,0,0,1.33-1.3l1-1.16a8.44,8.44,0,0,0,1-1.35,8.76,8.76,0,0,0,.76-2,3.22,3.22,0,0,0,.15-1.76,2.49,2.49,0,0,0-.34-.67,3.92,3.92,0,0,0-1.69-1.54,2.17,2.17,0,0,0-2.2.21c-.12.1-.31.33-.49.31s-.13-.12-.25-.21C727.77,434.48,727.64,434.43,727.31,434.84Z" transform="translate(-44.37 -81.31)"/><path class="cls-11" d="M728.34,437.48c-.11.15-.29.32-.45.22a1.79,1.79,0,0,1-.13-.14.4.4,0,0,0-.49,0,1,1,0,0,0-.33.4,5.49,5.49,0,0,0-.57,3.77,1.24,1.24,0,0,0,.21.52,1,1,0,0,0,1.12.26,2.75,2.75,0,0,0,1-.7,12.5,12.5,0,0,0,1.66-1.75,4.73,4.73,0,0,0,.95-2.19,1.69,1.69,0,0,0-.24-1.25,1.6,1.6,0,0,0-1.53-.54C729,436.29,728.65,437,728.34,437.48Z" transform="translate(-44.37 -81.31)"/><path class="cls-27" d="M748.18,432.5a4.9,4.9,0,0,1-.77.87,9.25,9.25,0,0,0-1.19,1.72,83.22,83.22,0,0,0-4,7.87c-.19.43-.5.93-1,.88a1,1,0,0,1-.47-.23,4.85,4.85,0,0,1-1.25-3.08l-.41-2.83-2.62,6a1.78,1.78,0,0,1-.42.65.59.59,0,0,1-.72.08.82.82,0,0,1-.24-.52,6.49,6.49,0,0,1,.76-3.42l1-2.32a23,23,0,0,1,2.45-4.69,1.27,1.27,0,0,1,.47-.45c.51-.24,1.11.24,1.24.79a4.25,4.25,0,0,1-.1,1.66,12.11,12.11,0,0,0,.34,4.1c0,.07,0,.15.11.17s.14-.06.18-.14l1.81-3.43a18.57,18.57,0,0,1,2.75-4.22,2.08,2.08,0,0,1,1.32-.75C748.25,431.15,748.6,431.8,748.18,432.5Z" transform="translate(-44.37 -81.31)"/><path class="cls-11" d="M897.15,413.57l-.6,1.82H915a14.94,14.94,0,0,1,10.54,4.36l6,6a10.17,10.17,0,0,0,14.38,0l6.07-6.07a14.7,14.7,0,0,1,10.42-4.32l177.77,0,.59-1.82H961.42a16.14,16.14,0,0,0-11.21,5.05l-5.76,5.76a8.18,8.18,0,0,1-11.56,0l-5.72-5.73a16.59,16.59,0,0,0-11.38-5Z" transform="translate(-44.37 -81.31)"/><text class="cls-26" transform="translate(918.96 361.7)"><tspan class="cls-8">F</tspan><tspan x="10.75" y="0">E</tspan><tspan class="cls-9" x="22.83" y="0">N</tspan><tspan class="cls-8" x="37.62" y="0">T</tspan><tspan x="49.36" y="0">ON</tspan></text><line class="cls-28" y1="409.11" x2="243.28" y2="409.11"/><path class="cls-28" d="M44.37,498.53h19.9A18,18,0,0,1,77,503.82l9.54,9.54a10.93,10.93,0,0,0,15.46,0l9.54-9.54a18,18,0,0,1,12.76-5.29H287.65" transform="translate(-44.37 -81.31)"/><text class="cls-29" transform="translate(71.92 444.56)"><tspan class="cls-3">F</tspan><tspan class="cls-4" x="10.64" y="0">E</tspan><tspan class="cls-5" x="22.77" y="0">N</tspan><tspan class="cls-6" x="37.6" y="0">T</tspan><tspan x="49.03" y="0">ON</tspan></text><text class="cls-30" transform="translate(348.44 442.52)"><tspan class="cls-8">F</tspan><tspan x="10.75" y="0">E</tspan><tspan class="cls-9" x="22.83" y="0">N</tspan><tspan class="cls-8" x="37.62" y="0">T</tspan><tspan x="49.36" y="0">ON</tspan></text><polygon class="cls-31" points="527.54 410.48 277.27 410.48 278.28 408.11 528.55 408.11 527.54 410.48"/><path class="cls-31" d="M322.64,497l-1,2.36H342.8A15.84,15.84,0,0,1,354,504l6.37,6.37a10.81,10.81,0,0,0,15.3,0l6.46-6.45a15.66,15.66,0,0,1,11.08-4.59l178.7,0,1-2.36H392.45a17,17,0,0,0-12,5l-6.12,6.13a8.7,8.7,0,0,1-12.29,0L355.9,502a17,17,0,0,0-12-5Z" transform="translate(-44.37 -81.31)"/><path class="cls-31" d="M1146.18,489.09l-3.74,10.5-178.7,0a15.66,15.66,0,0,0-11.08,4.59l-6.46,6.46a10.83,10.83,0,0,1-15.3,0l-6.37-6.37a15.84,15.84,0,0,0-11.2-4.64H892.17l3.74-10.5Z" transform="translate(-44.37 -81.31)"/><polygon class="cls-31" points="812.8 410.48 562.53 410.48 563.54 408.11 813.82 408.11 812.8 410.48"/><path class="cls-31" d="M607.91,497l-1,2.36h21.16A15.85,15.85,0,0,1,639.27,504l6.37,6.37a10.81,10.81,0,0,0,15.3,0l6.45-6.45a15.68,15.68,0,0,1,11.08-4.59l178.7,0,1-2.36H677.71a17,17,0,0,0-12,5l-6.12,6.13a8.71,8.71,0,0,1-12.3,0L641.17,502a17,17,0,0,0-12-5Z" transform="translate(-44.37 -81.31)"/><path class="cls-31" d="M686.24,506.33a5.46,5.46,0,0,1-3.26,2.06,6.66,6.66,0,0,0-1.52.59,1.79,1.79,0,0,0-.91,1.3c-.24,2.25.22,4.52,0,6.77a19.61,19.61,0,0,0,0,2.3c0,.51,0,1,.08,1.52s0,1.34.06,2,.21,1.21.74,1.35a.93.93,0,0,0,.94-.41,5.52,5.52,0,0,0,0-2c-.15-1.59-.19-2-.24-3.57,0-.4-.08-.87.23-1.11a.81.81,0,0,1,.43-.16,7.06,7.06,0,0,1,2.6.53,1,1,0,0,0,.74,0,.83.83,0,0,0,.25-1.05,2,2,0,0,0-1.34-1.09,9.56,9.56,0,0,0-1.77-.25.77.77,0,0,1-.37-.12.72.72,0,0,1-.16-.59l.14-3.58a.41.41,0,0,1,0-.16.4.4,0,0,1,.2-.16,19.31,19.31,0,0,0,3.13-1.7,2.84,2.84,0,0,0,.8-.82,1.19,1.19,0,0,0,.1-1.11C687,506.48,686.59,506.18,686.24,506.33Z" transform="translate(-44.37 -81.31)"/><path class="cls-31" d="M694.75,510.35l-1.66.26c-.1,0-.17.13-.27.13s-.26-.33-.25-.56c0-.42-.26-.94-.67-.88a.75.75,0,0,0-.54.51,4.63,4.63,0,0,0-.22,2.16,106.1,106.1,0,0,1-.18,12.61c0,.42,0,1,.4,1.1s.67-.17.92-.42a7.65,7.65,0,0,1,3.53-2.41,2.52,2.52,0,0,0,.66-.2,1,1,0,0,0,.5-1,1,1,0,0,0-.81-.79,2,2,0,0,0-1.34.5L692.51,523a2.13,2.13,0,0,1-.2-1.2c0-1.14.07-2.28.11-3.42a.67.67,0,0,1,.08-.37.71.71,0,0,1,.31-.19l2.33-.87a1.22,1.22,0,0,0,.42-.23,1.18,1.18,0,0,0,.23-.86c0-.26-.07-.59-.32-.62a.54.54,0,0,0-.3.1l-1.66.94a.79.79,0,0,1-.41.13c-.26,0-.4-.31-.46-.56a3.62,3.62,0,0,1,.34-2.66,2,2,0,0,1,2.08-1.16,5,5,0,0,0,.55.17.52.52,0,0,0,.52-.17c.16-.23-.06-.87-.18-1.07A1.35,1.35,0,0,0,694.75,510.35Z" transform="translate(-44.37 -81.31)"/><path class="cls-31" d="M711.18,513.46q-1.32,3.07-2.43,6.22c-.16.45-.41.86-.55,1.32s-.07.7-.19,1.08-.23.94-.75.83c-.09,0-.51-.21-.59-.22s-.13-.12-.16-.2c-.72-2.11-.5-4.43-1-6.6a.88.88,0,0,0-.17-.41.37.37,0,0,0-.41-.12,25.11,25.11,0,0,0-2.24,5.6,3.35,3.35,0,0,1-.54,1.32.9.9,0,0,1-.32.26.87.87,0,0,1-1.12-.55,1.75,1.75,0,0,1,.19-1.37c.23-.41.53-.78.76-1.2a13.23,13.23,0,0,0,.58-1.52c.18-.46.41-.9.62-1.35a44.34,44.34,0,0,0,1.89-4.88l.67-2c.09-.26.24-.57.51-.58a.59.59,0,0,1,.26.07,1.45,1.45,0,0,1,.75,1,2.82,2.82,0,0,1,0,.82,18.63,18.63,0,0,0,.58,6.48c.9-1.81,1.7-3.66,2.49-5.52a1.55,1.55,0,0,1,.52-.75.68.68,0,0,1,1,.43A2.85,2.85,0,0,1,711.18,513.46Z" transform="translate(-44.37 -81.31)"/><path class="cls-31" d="M714.4,514a1.5,1.5,0,0,0,.38.59l.51.6a.44.44,0,0,0,.23.16.41.41,0,0,0,.3-.08l2-1.15c.08-.05.19-.09.25,0a.23.23,0,0,1,0,.16,30.85,30.85,0,0,0,0,4.08c0,.51,0,2,0,2.46.07,1.16-.08,1.79,0,3a4.16,4.16,0,0,0,.23,1.45,2.46,2.46,0,0,0,1.13,1.45.58.58,0,0,0,.44.07.53.53,0,0,0,.2-.13,1.28,1.28,0,0,0,.17-1.56c-.17-.28-.46-.48-.63-.76a2.53,2.53,0,0,1-.14-1.7,37.05,37.05,0,0,0,.37-4.7,21.68,21.68,0,0,1,.33-4.77,1,1,0,0,1,.13-.32c.3-.4,1.06-.1,1.38-.49a.7.7,0,0,0,0-.78,8.3,8.3,0,0,0-.54-.64c-.17-.23-.32-.52-.6-.58a1,1,0,0,0-.61.17l-3.25,1.83c-.53.3-1.06.62-1.61.91C714.69,513.38,714.23,513.44,714.4,514Z" transform="translate(-44.37 -81.31)"/><path class="cls-31" d="M727.31,515.32c-.51.64-1,1.28-1.48,1.93a7.66,7.66,0,0,0-.76,1.21,6.76,6.76,0,0,0-.48,1.72,7.56,7.56,0,0,0,0,2.51,3.69,3.69,0,0,0,1.19,2.17,2.1,2.1,0,0,0,.7.39,2,2,0,0,0,.59.09,3,3,0,0,0,1.71-.64,9.61,9.61,0,0,0,1.33-1.3l1-1.16a8.44,8.44,0,0,0,1-1.35,9.12,9.12,0,0,0,.76-2,3.22,3.22,0,0,0,.15-1.76,2.49,2.49,0,0,0-.34-.67A3.92,3.92,0,0,0,731,514.9a2.17,2.17,0,0,0-2.2.21c-.12.1-.31.33-.49.31s-.13-.12-.25-.21C727.77,515,727.64,514.92,727.31,515.32Z" transform="translate(-44.37 -81.31)"/><path class="cls-11" d="M728.34,518c-.11.15-.29.31-.45.22s-.08-.1-.13-.14a.4.4,0,0,0-.49,0,.93.93,0,0,0-.33.4,5.46,5.46,0,0,0-.57,3.76,1.23,1.23,0,0,0,.21.53,1,1,0,0,0,1.12.26,2.88,2.88,0,0,0,1-.7,13.08,13.08,0,0,0,1.66-1.75,4.73,4.73,0,0,0,.95-2.19,1.69,1.69,0,0,0-.24-1.25,1.58,1.58,0,0,0-1.53-.54C729,516.78,728.65,517.5,728.34,518Z" transform="translate(-44.37 -81.31)"/><path class="cls-31" d="M748.18,513a4.9,4.9,0,0,1-.77.87,8.93,8.93,0,0,0-1.19,1.72,83.22,83.22,0,0,0-4,7.87c-.19.43-.5.93-1,.88a.89.89,0,0,1-.47-.24,4.8,4.8,0,0,1-1.25-3.07l-.41-2.83-2.62,6a1.78,1.78,0,0,1-.42.65.59.59,0,0,1-.72.08.82.82,0,0,1-.24-.52,6.49,6.49,0,0,1,.76-3.42l1-2.32a23.32,23.32,0,0,1,2.45-4.7,1.32,1.32,0,0,1,.47-.44c.51-.24,1.11.24,1.24.78a4.3,4.3,0,0,1-.1,1.67,12.11,12.11,0,0,0,.34,4.1c0,.07,0,.15.11.17s.14-.07.18-.14l1.81-3.43a18.57,18.57,0,0,1,2.75-4.22,2.08,2.08,0,0,1,1.32-.75C748.25,511.64,748.6,512.29,748.18,513Z" transform="translate(-44.37 -81.31)"/><path class="cls-11" d="M897.15,494.05l-.6,1.83H915a14.89,14.89,0,0,1,10.54,4.36l6,6a10.17,10.17,0,0,0,14.38,0l6.07-6.07a14.74,14.74,0,0,1,10.42-4.31l177.77,0,.59-1.83H961.42a16.15,16.15,0,0,0-11.21,5.06l-5.76,5.75a8.16,8.16,0,0,1-11.56,0l-5.72-5.72a16.65,16.65,0,0,0-11.38-5.06Z" transform="translate(-44.37 -81.31)"/><text class="cls-30" transform="translate(918.96 442.19)"><tspan class="cls-8">F</tspan><tspan x="10.75" y="0">E</tspan><tspan class="cls-9" x="22.83" y="0">N</tspan><tspan class="cls-8" x="37.62" y="0">T</tspan><tspan x="49.36" y="0">ON</tspan></text><line class="cls-32" y1="489.6" x2="243.28" y2="489.6"/><path class="cls-32" d="M44.37,579h19.9A18,18,0,0,1,77,584.3l9.54,9.55a11,11,0,0,0,15.46,0l9.54-9.55A18.06,18.06,0,0,1,124.32,579H287.65" transform="translate(-44.37 -81.31)"/><text class="cls-33" transform="translate(71.92 525.05)"><tspan class="cls-3">F</tspan><tspan class="cls-4" x="10.64" y="0">E</tspan><tspan class="cls-5" x="22.77" y="0">N</tspan><tspan class="cls-6" x="37.6" y="0">T</tspan><tspan x="49.03" y="0">ON</tspan></text><text class="cls-34" transform="translate(348.44 523.01)"><tspan class="cls-8">F</tspan><tspan x="10.75" y="0">E</tspan><tspan class="cls-9" x="22.83" y="0">N</tspan><tspan class="cls-8" x="37.62" y="0">T</tspan><tspan x="49.36" y="0">ON</tspan></text><polygon class="cls-35" points="527.54 490.97 277.27 490.97 278.28 488.6 528.55 488.6 527.54 490.97"/><path class="cls-35" d="M322.64,577.46l-1,2.36H342.8a15.84,15.84,0,0,1,11.2,4.64l6.37,6.37a10.81,10.81,0,0,0,15.3,0l6.46-6.46a15.69,15.69,0,0,1,11.08-4.58l178.7,0,1-2.36H392.45a17,17,0,0,0-12,5l-6.12,6.13a8.7,8.7,0,0,1-12.29,0l-6.1-6.1a17,17,0,0,0-12-5Z" transform="translate(-44.37 -81.31)"/><path class="cls-35" d="M1146.18,569.58l-3.74,10.49-178.7,0a15.66,15.66,0,0,0-11.08,4.59l-6.46,6.45a10.81,10.81,0,0,1-15.3,0l-6.37-6.36a15.81,15.81,0,0,0-11.2-4.65H892.17l3.74-10.49Z" transform="translate(-44.37 -81.31)"/><polygon class="cls-35" points="812.8 490.97 562.53 490.97 563.54 488.6 813.82 488.6 812.8 490.97"/><path class="cls-35" d="M607.91,577.46l-1,2.36h21.16a15.85,15.85,0,0,1,11.21,4.64l6.37,6.37a10.81,10.81,0,0,0,15.3,0l6.45-6.46a15.71,15.71,0,0,1,11.08-4.58l178.7,0,1-2.36H677.71a17,17,0,0,0-12,5l-6.12,6.13a8.71,8.71,0,0,1-12.3,0l-6.09-6.1a17.05,17.05,0,0,0-12-5Z" transform="translate(-44.37 -81.31)"/><path class="cls-35" d="M686.24,586.82a5.5,5.5,0,0,1-3.26,2.06,6.23,6.23,0,0,0-1.52.59,1.79,1.79,0,0,0-.91,1.3c-.24,2.25.22,4.52,0,6.77a19.61,19.61,0,0,0,0,2.3,15.11,15.11,0,0,0,.08,1.51c.07.65,0,1.35.06,2s.21,1.21.74,1.35a.93.93,0,0,0,.94-.41,5.52,5.52,0,0,0,0-2c-.15-1.59-.19-2-.24-3.57,0-.4-.08-.87.23-1.11a.91.91,0,0,1,.43-.17,7.29,7.29,0,0,1,2.6.54,1,1,0,0,0,.74,0,.83.83,0,0,0,.25-1.05,2,2,0,0,0-1.34-1.09,9.56,9.56,0,0,0-1.77-.25.69.69,0,0,1-.37-.13.7.7,0,0,1-.16-.59l.14-3.57a.38.38,0,0,1,0-.16.4.4,0,0,1,.2-.16,18.62,18.62,0,0,0,3.13-1.71,2.69,2.69,0,0,0,.8-.81,1.19,1.19,0,0,0,.1-1.11C687,587,686.59,586.67,686.24,586.82Z" transform="translate(-44.37 -81.31)"/><path class="cls-35" d="M694.75,590.84c-.54.07-1.15.19-1.66.26-.1,0-.17.13-.27.13s-.26-.33-.25-.56c0-.42-.26-.94-.67-.88a.75.75,0,0,0-.54.51,4.63,4.63,0,0,0-.22,2.16,106.1,106.1,0,0,1-.18,12.61c0,.42,0,1,.4,1.1s.67-.17.92-.42a7.65,7.65,0,0,1,3.53-2.41,2.52,2.52,0,0,0,.66-.2,1,1,0,0,0-.31-1.8,1.93,1.93,0,0,0-1.34.5l-2.31,1.61a2.13,2.13,0,0,1-.2-1.2c0-1.14.07-2.28.11-3.42a.67.67,0,0,1,.08-.37.63.63,0,0,1,.31-.19l2.33-.87a1.22,1.22,0,0,0,.42-.23,1.19,1.19,0,0,0,.23-.87c0-.25-.07-.58-.32-.61a.47.47,0,0,0-.3.1l-1.66.94a.79.79,0,0,1-.41.13c-.26,0-.4-.31-.46-.57a3.6,3.6,0,0,1,.34-2.65,2,2,0,0,1,2.08-1.16,5,5,0,0,0,.55.17.52.52,0,0,0,.52-.17c.16-.23-.06-.87-.18-1.07A1.33,1.33,0,0,0,694.75,590.84Z" transform="translate(-44.37 -81.31)"/><path class="cls-35" d="M711.18,594q-1.32,3.07-2.43,6.22c-.16.45-.41.86-.55,1.32s-.07.7-.19,1.08-.23.94-.75.83c-.09,0-.51-.21-.59-.22s-.13-.12-.16-.2c-.72-2.11-.5-4.43-1-6.6a.88.88,0,0,0-.17-.41.35.35,0,0,0-.41-.12,25.11,25.11,0,0,0-2.24,5.6,3.42,3.42,0,0,1-.54,1.32.9.9,0,0,1-.32.26.87.87,0,0,1-1.12-.56,1.73,1.73,0,0,1,.19-1.36c.23-.41.53-.78.76-1.2a13.23,13.23,0,0,0,.58-1.52c.18-.46.41-.9.62-1.35a45.13,45.13,0,0,0,1.89-4.88l.67-2c.09-.26.24-.57.51-.58a.59.59,0,0,1,.26.07,1.43,1.43,0,0,1,.75,1,2.82,2.82,0,0,1,0,.82,18.63,18.63,0,0,0,.58,6.48c.9-1.81,1.7-3.66,2.49-5.52a1.55,1.55,0,0,1,.52-.75.67.67,0,0,1,1,.43A2.85,2.85,0,0,1,711.18,594Z" transform="translate(-44.37 -81.31)"/><path class="cls-35" d="M714.4,594.48a1.5,1.5,0,0,0,.38.59l.51.59a.46.46,0,0,0,.23.17.41.41,0,0,0,.3-.08l2-1.15c.08-.05.19-.09.25,0s0,.11,0,.16a30.85,30.85,0,0,0,0,4.08c0,.51,0,1.95,0,2.46.07,1.16-.08,1.79,0,3a4.19,4.19,0,0,0,.23,1.45,2.46,2.46,0,0,0,1.13,1.45.58.58,0,0,0,.44.07.56.56,0,0,0,.2-.14,1.28,1.28,0,0,0,.17-1.56c-.17-.27-.46-.47-.63-.76a2.52,2.52,0,0,1-.14-1.7,36.75,36.75,0,0,0,.37-4.69,21.68,21.68,0,0,1,.33-4.77.9.9,0,0,1,.13-.32c.3-.4,1.06-.1,1.38-.49a.7.7,0,0,0,0-.78,8.3,8.3,0,0,0-.54-.64c-.17-.23-.32-.52-.6-.58a.87.87,0,0,0-.61.17l-3.25,1.83c-.53.3-1.06.62-1.61.9C714.69,593.87,714.23,593.93,714.4,594.48Z" transform="translate(-44.37 -81.31)"/><path class="cls-35" d="M727.31,595.81c-.51.63-1,1.27-1.48,1.93a7.66,7.66,0,0,0-.76,1.21,6.76,6.76,0,0,0-.48,1.72,7.56,7.56,0,0,0,0,2.51,3.69,3.69,0,0,0,1.19,2.17,2.1,2.1,0,0,0,.7.39,2,2,0,0,0,.59.09,3.07,3.07,0,0,0,1.71-.64,9.61,9.61,0,0,0,1.33-1.3l1-1.16a8.09,8.09,0,0,0,1-1.36,8.86,8.86,0,0,0,.76-2,3.23,3.23,0,0,0,.15-1.76,2.49,2.49,0,0,0-.34-.67,4,4,0,0,0-1.69-1.55,2.19,2.19,0,0,0-2.2.22c-.12.1-.31.33-.49.31s-.13-.12-.25-.22C727.77,595.45,727.64,595.4,727.31,595.81Z" transform="translate(-44.37 -81.31)"/><path class="cls-11" d="M728.34,598.46c-.11.15-.29.31-.45.22s-.08-.1-.13-.14a.42.42,0,0,0-.49,0,1,1,0,0,0-.33.41,5.46,5.46,0,0,0-.57,3.76,1.23,1.23,0,0,0,.21.53,1,1,0,0,0,1.12.26,2.88,2.88,0,0,0,1-.7,13.71,13.71,0,0,0,1.66-1.75,4.73,4.73,0,0,0,.95-2.19,1.69,1.69,0,0,0-.24-1.25,1.58,1.58,0,0,0-1.53-.54C729,597.26,728.65,598,728.34,598.46Z" transform="translate(-44.37 -81.31)"/><path class="cls-35" d="M748.18,593.48a5.27,5.27,0,0,1-.77.87,8.93,8.93,0,0,0-1.19,1.72,83.22,83.22,0,0,0-4,7.87c-.19.43-.5.93-1,.88a.89.89,0,0,1-.47-.24,4.8,4.8,0,0,1-1.25-3.07l-.41-2.83-2.62,6a1.82,1.82,0,0,1-.42.66.61.61,0,0,1-.72.08.82.82,0,0,1-.24-.52,6.49,6.49,0,0,1,.76-3.42l1-2.32a23.32,23.32,0,0,1,2.45-4.7,1.32,1.32,0,0,1,.47-.44c.51-.24,1.11.24,1.24.78a4.3,4.3,0,0,1-.1,1.67,12.11,12.11,0,0,0,.34,4.1c0,.07,0,.15.11.17s.14-.07.18-.14l1.81-3.43a18.57,18.57,0,0,1,2.75-4.22,2,2,0,0,1,1.32-.75C748.25,592.13,748.6,592.78,748.18,593.48Z" transform="translate(-44.37 -81.31)"/><path class="cls-11" d="M897.15,574.54l-.6,1.82H915a14.9,14.9,0,0,1,10.54,4.37l6,6a10.17,10.17,0,0,0,14.38,0l6.07-6.07a14.74,14.74,0,0,1,10.42-4.31l177.77,0,.59-1.82H961.42a16.15,16.15,0,0,0-11.21,5.06l-5.76,5.75a8.18,8.18,0,0,1-11.56,0l-5.72-5.72a16.6,16.6,0,0,0-11.38-5.06Z" transform="translate(-44.37 -81.31)"/><text class="cls-34" transform="translate(918.96 522.68)"><tspan class="cls-8">F</tspan><tspan x="10.75" y="0">E</tspan><tspan class="cls-9" x="22.83" y="0">N</tspan><tspan class="cls-8" x="37.62" y="0">T</tspan><tspan x="49.36" y="0">ON</tspan></text><line class="cls-36" y1="570.09" x2="243.28" y2="570.09"/><path class="cls-36" d="M44.37,659.51h19.9A18,18,0,0,1,77,664.79l9.54,9.54a10.93,10.93,0,0,0,15.46,0l9.54-9.54a18.06,18.06,0,0,1,12.76-5.28H287.65" transform="translate(-44.37 -81.31)"/><text class="cls-37" transform="translate(71.92 605.54)"><tspan class="cls-3">F</tspan><tspan class="cls-4" x="10.64" y="0">E</tspan><tspan class="cls-5" x="22.77" y="0">N</tspan><tspan class="cls-6" x="37.6" y="0">T</tspan><tspan x="49.03" y="0">ON</tspan></text><text class="cls-38" transform="translate(348.44 603.5)"><tspan class="cls-8">F</tspan><tspan x="10.75" y="0">E</tspan><tspan class="cls-9" x="22.83" y="0">N</tspan><tspan class="cls-8" x="37.62" y="0">T</tspan><tspan x="49.36" y="0">ON</tspan></text><polygon class="cls-39" points="527.54 571.45 277.27 571.45 278.28 569.09 528.55 569.09 527.54 571.45"/><path class="cls-39" d="M322.64,658l-1,2.36H342.8A15.84,15.84,0,0,1,354,665l6.37,6.37a10.83,10.83,0,0,0,15.3,0l6.46-6.46a15.66,15.66,0,0,1,11.08-4.59l178.7,0,1-2.36H392.45a17,17,0,0,0-12,5l-6.12,6.12a8.68,8.68,0,0,1-12.29,0L355.9,663a17,17,0,0,0-12-5Z" transform="translate(-44.37 -81.31)"/><path class="cls-39" d="M1146.18,650.07l-3.74,10.49-178.7,0a15.69,15.69,0,0,0-11.08,4.58l-6.46,6.46a10.81,10.81,0,0,1-15.3,0l-6.37-6.37a15.84,15.84,0,0,0-11.2-4.64H892.17l3.74-10.49Z" transform="translate(-44.37 -81.31)"/><polygon class="cls-39" points="812.8 571.45 562.53 571.45 563.54 569.09 813.82 569.09 812.8 571.45"/><path class="cls-39" d="M607.91,658l-1,2.36h21.16A15.85,15.85,0,0,1,639.27,665l6.37,6.37a10.83,10.83,0,0,0,15.3,0l6.45-6.46a15.68,15.68,0,0,1,11.08-4.59l178.7,0,1-2.36H677.71a17,17,0,0,0-12,5l-6.12,6.12a8.69,8.69,0,0,1-12.3,0L641.17,663a17.05,17.05,0,0,0-12-5Z" transform="translate(-44.37 -81.31)"/><path class="cls-39" d="M686.24,667.31a5.5,5.5,0,0,1-3.26,2.06,6.23,6.23,0,0,0-1.52.59,1.8,1.8,0,0,0-.91,1.29c-.24,2.26.22,4.53,0,6.78a19.61,19.61,0,0,0,0,2.3,15.11,15.11,0,0,0,.08,1.51c.07.65,0,1.35.06,2s.21,1.2.74,1.35a.93.93,0,0,0,.94-.41,5.52,5.52,0,0,0,0-2c-.15-1.59-.19-2-.24-3.58,0-.39-.08-.86.23-1.11a1,1,0,0,1,.43-.16,7.29,7.29,0,0,1,2.6.54,1,1,0,0,0,.74,0,.84.84,0,0,0,.25-1.05,2,2,0,0,0-1.34-1.09,9.57,9.57,0,0,0-1.77-.26.61.61,0,0,1-.37-.12.71.71,0,0,1-.16-.59l.14-3.57a.47.47,0,0,1,0-.17.44.44,0,0,1,.2-.15,20.16,20.16,0,0,0,3.13-1.71,2.72,2.72,0,0,0,.8-.82,1.17,1.17,0,0,0,.1-1.1C687,667.46,686.59,667.16,686.24,667.31Z" transform="translate(-44.37 -81.31)"/><path class="cls-39" d="M694.75,671.33c-.54.07-1.15.19-1.66.26-.1,0-.17.13-.27.12s-.26-.32-.25-.55c0-.42-.26-.94-.67-.88a.75.75,0,0,0-.54.51,4.63,4.63,0,0,0-.22,2.16,106.13,106.13,0,0,1-.18,12.61c0,.42,0,1,.4,1.09s.67-.16.92-.41a7.6,7.6,0,0,1,3.53-2.42,2.5,2.5,0,0,0,.66-.19,1,1,0,0,0-.31-1.8,1.93,1.93,0,0,0-1.34.5l-2.31,1.6a2.08,2.08,0,0,1-.2-1.19c0-1.14.07-2.28.11-3.42a.65.65,0,0,1,.08-.37.63.63,0,0,1,.31-.19l2.33-.88a1,1,0,0,0,.42-.23,1.15,1.15,0,0,0,.23-.86c0-.25-.07-.59-.32-.61a.47.47,0,0,0-.3.1l-1.66.94a.79.79,0,0,1-.41.13c-.26,0-.4-.32-.46-.57a3.6,3.6,0,0,1,.34-2.65,2,2,0,0,1,2.08-1.16,5,5,0,0,0,.55.17.52.52,0,0,0,.52-.18c.16-.22-.06-.87-.18-1.07A1.32,1.32,0,0,0,694.75,671.33Z" transform="translate(-44.37 -81.31)"/><path class="cls-39" d="M711.18,674.44q-1.32,3.07-2.43,6.22c-.16.45-.41.86-.55,1.32s-.07.7-.19,1.07-.23,1-.75.84c-.09,0-.51-.21-.59-.23s-.13-.11-.16-.19c-.72-2.11-.5-4.43-1-6.6a.84.84,0,0,0-.17-.41.35.35,0,0,0-.41-.12,25.11,25.11,0,0,0-2.24,5.6,3.42,3.42,0,0,1-.54,1.32,1,1,0,0,1-.32.26.87.87,0,0,1-1.12-.56,1.73,1.73,0,0,1,.19-1.36c.23-.42.53-.78.76-1.2a13.23,13.23,0,0,0,.58-1.52c.18-.46.41-.91.62-1.35a45.13,45.13,0,0,0,1.89-4.88l.67-2c.09-.25.24-.56.51-.57a.59.59,0,0,1,.26.07,1.43,1.43,0,0,1,.75,1,2.89,2.89,0,0,1,0,.83,18.63,18.63,0,0,0,.58,6.48c.9-1.81,1.7-3.66,2.49-5.52a1.5,1.5,0,0,1,.52-.75.67.67,0,0,1,1,.43A2.85,2.85,0,0,1,711.18,674.44Z" transform="translate(-44.37 -81.31)"/><path class="cls-39" d="M714.4,675a1.57,1.57,0,0,0,.38.59l.51.59a.46.46,0,0,0,.23.17.46.46,0,0,0,.3-.08l2-1.15c.08-.05.19-.09.25,0s0,.1,0,.16a30.85,30.85,0,0,0,0,4.08c0,.5,0,2,0,2.46.07,1.15-.08,1.79,0,3a4.19,4.19,0,0,0,.23,1.45,2.44,2.44,0,0,0,1.13,1.44.59.59,0,0,0,.44.08.56.56,0,0,0,.2-.14,1.28,1.28,0,0,0,.17-1.56c-.17-.28-.46-.48-.63-.76a2.52,2.52,0,0,1-.14-1.7,36.75,36.75,0,0,0,.37-4.69,21.68,21.68,0,0,1,.33-4.77.83.83,0,0,1,.13-.32c.3-.4,1.06-.11,1.38-.49a.7.7,0,0,0,0-.78,8.3,8.3,0,0,0-.54-.64c-.17-.23-.32-.52-.6-.58a.87.87,0,0,0-.61.17l-3.25,1.83c-.53.3-1.06.62-1.61.9C714.69,674.35,714.23,674.42,714.4,675Z" transform="translate(-44.37 -81.31)"/><path class="cls-39" d="M727.31,676.3c-.51.63-1,1.27-1.48,1.93a7.66,7.66,0,0,0-.76,1.21,6.76,6.76,0,0,0-.48,1.72,7.56,7.56,0,0,0,0,2.51,3.69,3.69,0,0,0,1.19,2.17,2.1,2.1,0,0,0,.7.39,1.68,1.68,0,0,0,.59.08,3,3,0,0,0,1.71-.63,9.61,9.61,0,0,0,1.33-1.3l1-1.16a8.09,8.09,0,0,0,1-1.36,8.86,8.86,0,0,0,.76-2,3.23,3.23,0,0,0,.15-1.76,2.49,2.49,0,0,0-.34-.67,4,4,0,0,0-1.69-1.55,2.19,2.19,0,0,0-2.2.22c-.12.1-.31.33-.49.31s-.13-.13-.25-.22C727.77,675.94,727.64,675.89,727.31,676.3Z" transform="translate(-44.37 -81.31)"/><path class="cls-11" d="M728.34,679c-.11.15-.29.31-.45.21s-.08-.09-.13-.13a.42.42,0,0,0-.49,0,1.06,1.06,0,0,0-.33.4,5.5,5.5,0,0,0-.57,3.77,1.23,1.23,0,0,0,.21.53,1,1,0,0,0,1.12.26,2.88,2.88,0,0,0,1-.7,13.71,13.71,0,0,0,1.66-1.75,4.73,4.73,0,0,0,.95-2.19,1.72,1.72,0,0,0-.24-1.26,1.6,1.6,0,0,0-1.53-.53C729,677.75,728.65,678.47,728.34,679Z" transform="translate(-44.37 -81.31)"/><path class="cls-39" d="M748.18,674a5.27,5.27,0,0,1-.77.87,8.63,8.63,0,0,0-1.19,1.72,83.22,83.22,0,0,0-4,7.87c-.19.42-.5.93-1,.88a.89.89,0,0,1-.47-.24,4.8,4.8,0,0,1-1.25-3.07l-.41-2.84-2.62,6a1.82,1.82,0,0,1-.42.66.59.59,0,0,1-.72.07.77.77,0,0,1-.24-.51,6.49,6.49,0,0,1,.76-3.42l1-2.33a23.24,23.24,0,0,1,2.45-4.69,1.35,1.35,0,0,1,.47-.45c.51-.23,1.11.25,1.24.79a4.31,4.31,0,0,1-.1,1.67,12.13,12.13,0,0,0,.34,4.1c0,.07,0,.15.11.17s.14-.07.18-.14l1.81-3.43a18.36,18.36,0,0,1,2.75-4.22,2,2,0,0,1,1.32-.75C748.25,672.62,748.6,673.27,748.18,674Z" transform="translate(-44.37 -81.31)"/><path class="cls-11" d="M897.15,655l-.6,1.82H915a14.94,14.94,0,0,1,10.54,4.36l6,6a10.17,10.17,0,0,0,14.38,0l6.07-6.07a14.74,14.74,0,0,1,10.42-4.31l177.77,0,.59-1.82H961.42a16.15,16.15,0,0,0-11.21,5.06l-5.76,5.75a8.18,8.18,0,0,1-11.56,0l-5.72-5.72a16.6,16.6,0,0,0-11.38-5.06Z" transform="translate(-44.37 -81.31)"/><text class="cls-38" transform="translate(918.96 603.17)"><tspan class="cls-8">F</tspan><tspan x="10.75" y="0">E</tspan><tspan class="cls-9" x="22.83" y="0">N</tspan><tspan class="cls-8" x="37.62" y="0">T</tspan><tspan x="49.36" y="0">ON</tspan></text><line class="cls-40" y1="650.58" x2="243.28" y2="650.58"/><path class="cls-40" d="M44.37,740h19.9A18,18,0,0,1,77,745.28l9.54,9.54a10.93,10.93,0,0,0,15.46,0l9.54-9.54A18.06,18.06,0,0,1,124.32,740H287.65" transform="translate(-44.37 -81.31)"/><text class="cls-41" transform="translate(71.92 686.02)"><tspan class="cls-3">F</tspan><tspan class="cls-4" x="10.64" y="0">E</tspan><tspan class="cls-5" x="22.77" y="0">N</tspan><tspan class="cls-6" x="37.6" y="0">T</tspan><tspan x="49.03" y="0">ON</tspan></text><text class="cls-42" transform="translate(348.44 683.99)"><tspan class="cls-8">F</tspan><tspan x="10.75" y="0">E</tspan><tspan class="cls-9" x="22.83" y="0">N</tspan><tspan class="cls-8" x="37.62" y="0">T</tspan><tspan x="49.36" y="0">ON</tspan></text><polygon class="cls-43" points="527.54 651.94 277.27 651.94 278.28 649.58 528.55 649.58 527.54 651.94"/><path class="cls-43" d="M322.64,738.43l-1,2.37H342.8a15.84,15.84,0,0,1,11.2,4.64l6.37,6.37a10.83,10.83,0,0,0,15.3,0l6.46-6.46a15.66,15.66,0,0,1,11.08-4.59l178.7,0,1-2.37H392.45a17,17,0,0,0-12,5l-6.12,6.12a8.68,8.68,0,0,1-12.29,0l-6.1-6.09a17,17,0,0,0-12-5Z" transform="translate(-44.37 -81.31)"/><path class="cls-43" d="M1146.18,730.56l-3.74,10.49-178.7,0a15.61,15.61,0,0,0-11.08,4.58l-6.46,6.46a10.81,10.81,0,0,1-15.3,0l-6.37-6.37a15.84,15.84,0,0,0-11.2-4.64H892.17l3.74-10.49Z" transform="translate(-44.37 -81.31)"/><polygon class="cls-43" points="812.8 651.94 562.53 651.94 563.54 649.58 813.82 649.58 812.8 651.94"/><path class="cls-43" d="M607.91,738.43l-1,2.37h21.16a15.85,15.85,0,0,1,11.21,4.64l6.37,6.37a10.83,10.83,0,0,0,15.3,0l6.45-6.46a15.68,15.68,0,0,1,11.08-4.59l178.7,0,1-2.37H677.71a17,17,0,0,0-12,5l-6.12,6.12a8.69,8.69,0,0,1-12.3,0l-6.09-6.09a17,17,0,0,0-12-5Z" transform="translate(-44.37 -81.31)"/><path class="cls-43" d="M686.24,747.8a5.55,5.55,0,0,1-3.26,2.06,6.23,6.23,0,0,0-1.52.59,1.8,1.8,0,0,0-.91,1.29c-.24,2.26.22,4.52,0,6.78a19.61,19.61,0,0,0,0,2.3c0,.51,0,1,.08,1.51s0,1.35.06,2,.21,1.2.74,1.34a.91.91,0,0,0,.94-.41,5.46,5.46,0,0,0,0-2c-.15-1.59-.19-2-.24-3.58,0-.39-.08-.86.23-1.11a.9.9,0,0,1,.43-.16,7.08,7.08,0,0,1,2.6.54,1.1,1.1,0,0,0,.74,0,.84.84,0,0,0,.25-1,2,2,0,0,0-1.34-1.09,9.57,9.57,0,0,0-1.77-.26.61.61,0,0,1-.37-.12.71.71,0,0,1-.16-.59l.14-3.58a.45.45,0,0,1,0-.16.38.38,0,0,1,.2-.15,20.16,20.16,0,0,0,3.13-1.71,2.72,2.72,0,0,0,.8-.82,1.19,1.19,0,0,0,.1-1.11C687,748,686.59,747.65,686.24,747.8Z" transform="translate(-44.37 -81.31)"/><path class="cls-43" d="M694.75,751.82c-.54.07-1.15.18-1.66.26-.1,0-.17.13-.27.12s-.26-.33-.25-.55c0-.42-.26-.94-.67-.89a.78.78,0,0,0-.54.52,4.63,4.63,0,0,0-.22,2.16,106.13,106.13,0,0,1-.18,12.61c0,.42,0,1,.4,1.09s.67-.16.92-.42a7.65,7.65,0,0,1,3.53-2.41,2.5,2.5,0,0,0,.66-.19,1,1,0,0,0-.31-1.8,1.92,1.92,0,0,0-1.34.49l-2.31,1.61a2.08,2.08,0,0,1-.2-1.19c0-1.14.07-2.28.11-3.43a.64.64,0,0,1,.08-.36.63.63,0,0,1,.31-.19l2.33-.88a1,1,0,0,0,.42-.23,1.15,1.15,0,0,0,.23-.86c0-.25-.07-.59-.32-.61a.53.53,0,0,0-.3.09l-1.66.94a.64.64,0,0,1-.41.13c-.26,0-.4-.31-.46-.56a3.6,3.6,0,0,1,.34-2.65,2,2,0,0,1,2.08-1.16c.18,0,.36.13.55.16a.5.5,0,0,0,.52-.17c.16-.23-.06-.87-.18-1.07A1.32,1.32,0,0,0,694.75,751.82Z" transform="translate(-44.37 -81.31)"/><path class="cls-43" d="M711.18,754.93c-.88,2-1.69,4.12-2.43,6.22-.16.45-.41.86-.55,1.31s-.07.7-.19,1.08-.23.94-.75.83c-.09,0-.51-.2-.59-.22s-.13-.11-.16-.2c-.72-2.1-.5-4.42-1-6.59a.91.91,0,0,0-.17-.42.36.36,0,0,0-.41-.11,24.92,24.92,0,0,0-2.24,5.6,3.48,3.48,0,0,1-.54,1.32,1,1,0,0,1-.32.26.88.88,0,0,1-1.12-.56,1.73,1.73,0,0,1,.19-1.36c.23-.42.53-.78.76-1.2a14,14,0,0,0,.58-1.52c.18-.47.41-.91.62-1.36a44.18,44.18,0,0,0,1.89-4.87l.67-2c.09-.26.24-.56.51-.57a.59.59,0,0,1,.26.07,1.43,1.43,0,0,1,.75,1,2.82,2.82,0,0,1,0,.82,18.69,18.69,0,0,0,.58,6.49c.9-1.81,1.7-3.66,2.49-5.52a1.58,1.58,0,0,1,.52-.76.68.68,0,0,1,1,.44A2.86,2.86,0,0,1,711.18,754.93Z" transform="translate(-44.37 -81.31)"/><path class="cls-43" d="M714.4,755.46a1.46,1.46,0,0,0,.38.58l.51.6a.53.53,0,0,0,.23.17.41.41,0,0,0,.3-.09l2-1.15c.08,0,.19-.08.25,0s0,.1,0,.16a30.83,30.83,0,0,0,0,4.08c0,.5,0,2,0,2.46.07,1.15-.08,1.79,0,3a4.23,4.23,0,0,0,.23,1.45,2.47,2.47,0,0,0,1.13,1.44.64.64,0,0,0,.44.08.56.56,0,0,0,.2-.14,1.28,1.28,0,0,0,.17-1.56c-.17-.28-.46-.48-.63-.76a2.52,2.52,0,0,1-.14-1.7,36.75,36.75,0,0,0,.37-4.69,21.81,21.81,0,0,1,.33-4.78.85.85,0,0,1,.13-.31c.3-.4,1.06-.11,1.38-.49a.71.71,0,0,0,0-.79c-.15-.23-.37-.41-.54-.63s-.32-.53-.6-.58a.87.87,0,0,0-.61.17l-3.25,1.83c-.53.3-1.06.62-1.61.9C714.69,754.84,714.23,754.91,714.4,755.46Z" transform="translate(-44.37 -81.31)"/><path class="cls-43" d="M727.31,756.79c-.51.63-1,1.27-1.48,1.93a7.23,7.23,0,0,0-.76,1.21,6.8,6.8,0,0,0-.48,1.71,7.62,7.62,0,0,0,0,2.52,3.67,3.67,0,0,0,1.19,2.16,1.84,1.84,0,0,0,1.29.48,2.93,2.93,0,0,0,1.71-.64,9,9,0,0,0,1.33-1.29l1-1.17a7.64,7.64,0,0,0,1-1.35,8.86,8.86,0,0,0,.76-2,3.23,3.23,0,0,0,.15-1.76,2.41,2.41,0,0,0-.34-.68,4,4,0,0,0-1.69-1.54,2.19,2.19,0,0,0-2.2.22c-.12.1-.31.33-.49.31s-.13-.13-.25-.22C727.77,756.43,727.64,756.38,727.31,756.79Z" transform="translate(-44.37 -81.31)"/><path class="cls-11" d="M728.34,759.44c-.11.15-.29.31-.45.21s-.08-.09-.13-.13a.4.4,0,0,0-.49,0,1,1,0,0,0-.33.4,5.5,5.5,0,0,0-.57,3.77,1.34,1.34,0,0,0,.21.53,1,1,0,0,0,1.12.26,3,3,0,0,0,1-.7,13.15,13.15,0,0,0,1.66-1.76,4.69,4.69,0,0,0,.95-2.18,1.72,1.72,0,0,0-.24-1.26,1.57,1.57,0,0,0-1.53-.53C729,758.24,728.65,759,728.34,759.44Z" transform="translate(-44.37 -81.31)"/><path class="cls-43" d="M748.18,754.46a5.71,5.71,0,0,1-.77.87,8.86,8.86,0,0,0-1.19,1.71,84.44,84.44,0,0,0-4,7.87c-.19.43-.5.94-1,.89a1,1,0,0,1-.47-.24,4.8,4.8,0,0,1-1.25-3.07l-.41-2.84-2.62,6a1.82,1.82,0,0,1-.42.66.59.59,0,0,1-.72.07.79.79,0,0,1-.24-.51,6.53,6.53,0,0,1,.76-3.43l1-2.32a23.24,23.24,0,0,1,2.45-4.69,1.27,1.27,0,0,1,.47-.45c.51-.23,1.11.25,1.24.79a4.25,4.25,0,0,1-.1,1.66,12.09,12.09,0,0,0,.34,4.1c0,.07,0,.16.11.17s.14-.06.18-.14l1.81-3.43a18.3,18.3,0,0,1,2.75-4.21,2,2,0,0,1,1.32-.76C748.25,753.1,748.6,753.75,748.18,754.46Z" transform="translate(-44.37 -81.31)"/><path class="cls-11" d="M897.15,735.52l-.6,1.82H915a14.94,14.94,0,0,1,10.54,4.36l6,6a10.17,10.17,0,0,0,14.38,0l6.07-6.07a14.74,14.74,0,0,1,10.42-4.31l177.77,0,.59-1.82H961.42a16.14,16.14,0,0,0-11.21,5.05l-5.76,5.76a8.18,8.18,0,0,1-11.56,0l-5.72-5.73a16.64,16.64,0,0,0-11.38-5.05Z" transform="translate(-44.37 -81.31)"/><text class="cls-42" transform="translate(918.96 683.66)"><tspan class="cls-8">F</tspan><tspan x="10.75" y="0">E</tspan><tspan class="cls-9" x="22.83" y="0">N</tspan><tspan class="cls-8" x="37.62" y="0">T</tspan><tspan x="49.36" y="0">ON</tspan></text></svg>